<mxfile host="app.diagrams.net" modified="2023-06-22T18:42:41.628Z" agent="Mozilla/5.0 (Windows NT 10.0; Win64; x64) AppleWebKit/537.36 (KHTML, like Gecko) Chrome/114.0.0.0 Safari/537.36" etag="ntzdBsbcv7i9PW1yclW8" version="21.3.7" type="github">
  <diagram name="Page-1" id="DOXmwWSRJ_FusjVFHCSw">
    <mxGraphModel dx="1050" dy="549" grid="1" gridSize="10" guides="1" tooltips="1" connect="1" arrows="1" fold="1" page="1" pageScale="1" pageWidth="827" pageHeight="1169" math="0" shadow="0">
      <root>
        <mxCell id="0" />
        <mxCell id="1" parent="0" />
        <mxCell id="3ol2w-D4bPpbthhAUVwz-20" value="" style="shape=image;verticalLabelPosition=bottom;labelBackgroundColor=default;verticalAlign=top;aspect=fixed;imageAspect=0;image=data:image/png,iVBORw0KGgoAAAANSUhEUgAABPQAAAHlCAYAAAByC6L2AAAgAElEQVR4nOzdf2xTd57/+9deVkY3+rriKoi5csUKz1YNQsJ0Nba6gxk0pNxLaDW4nQ0pFwLzJWE0IbOTpKMh9DsEVkNSTQlzS8IdAqsBczckVQloG2dVYvSlyX5ZjJZxpILRIIzaOhqEpUGxli+ezQirWX//cICQ2I7t2A6n+3z8Bf71OT7nvD/n+JXPOZ8/i8fjcQEAAAAAAAAwhP9tvhcAAAAAAAAAQOYI9AAAAAAAAAADIdADAAAAAAAADIRADwAAAAAAADAQAj0AAAAAAADAQAj0AAAAAAAAAAMh0AMAAAAAAAAMhEAPAAAAAAAAMBACPQAAAAAAAMBACPQAAAAAAAAAAylCoBdQh90uu92ujuuFb21OrnfIbrfLbm+U5/58L8w8mIjI392imtdXJ9bD2g1y35zvhUK+BY4m6tHe4FFkvhcGAAAAAABk7c/newHwnJgIy7OnUq2XY08fG4/o4cT8LRIAAAAAAABmyi7QexCS79I5eQZu6MZoUJFxSTKp9GWrVv11laq3uGRbUpDlRIGFP25JhHklTjWfaFPVCvOcPzN4epO2HTOr+XyvqpZNPhjxqnFDi3xbj2vkp47MPywaVN/f7VT7shMaabAlfUlkoFEbDvqyW8jV+3XxqEul0x+fiCk80q+e8x59em1yX19klWO1SzV/Wy1HPvfz+x41vt6q7Jbcqf0XOuWi3gAAAAAA+E8ns0BvIiL/6RY1n/ArOuPJmCJ3ghq606qh7iG1XexUxYx0BM+3oLzdAUmSrWFvXsI8KaLQzbCkalmXTnk4dFs+Sc7l38z8k6651bKvS/4HkpbN+vKsmJZaNOPbjgflbtipruuxZx9/EJL/Qof8F06p/GCv2l+35HdhslHyoiyL5q95AAAAAAAwfzII9GIKHKvT7u6QJMn8arWa3i6XbblVi01S7EFItwNXNPhRj7x3pEdcomk8kZBuhCXJJHtZnkKqiS91+7Kktcv1zQVPHw594Zdk0aqXZk99o6M+nTvcoq5rM2PkZEor2jS8dvbXxUbPqG6XWyE5tfcHDpmeWe6g3Du2qWtU0iKH6g80y/XXVpWapNjdgPpPt6p9IKShA43qsPSq6RVTilayULpRbZfKZ3/dREhn6mvk/kJy/qxWjjw0DQAAAAAAjGf2QO9Wj1q6Q5JMcu7p1eG3rc8GIItsci6zybmpXvUXe3S7UEuKwpl4NPkPh178Rp4+825IfkmWldYpl7NGFQoEJVWpLM1Iu8jVLh35zTl5b04GeYvKVFYSVDA8S5sms8yzhlxRDZ3rUUiS9cf1My5ZDX98KBHmlTi1v7tTrin5pmmpTVUHerV80TbVdIfU09ajjWdrVLZAc7PAJPOi2dO56KU+9XwhaVm96t9gGCwAAAAAAP9ZzTrLbfBav8KSVFKl2sppYd40lg3VKueeXpAUueVTUFL5yrIpj4Z0+18k2ctkTbMj3RtxT4Z5Ztkq96v348NP78E3V3fO6fjFmFRSod1vlU178tlLj11JByuaZNvVpKoSSaMnNVisWYAngjp3wquYTKqo2zz3EBEAAAAAABjWrIHeo+jksKhlFpkJEZChL2/7JDm13DrlwXBIN8cl0ytWpb2wt8Sq8h375b4wLPe7LpWZF+ZpqSLy/LorMTpv53aVT78HXfi2/GFJKlOFPc0SljjkfF2SYhr6LJinZUsv8klXYuTgsl3avi4f9zgEAAAAAABGNesltwvNFklh6ZZPgftVsuZhBF70jlenfnNGg5Ozh5qWlGlNxXbV7qxQWbqs4n5Q3sseDQ345b8VSkzQscgqx+p1clVvV8XLswQdExEFPjmjno8GdeVORDFJ5mUOOTfV6J1tjpkznaYQC/vV331OnstXFLwfk2SW9VWnXG/XyuW0pg4+JyIKfHJWfReH5bs2ufwlpSpb6dDGbfWqWm1JOwIyneioTx53jwZHbkwu0+R6XeuSa8tGOZdNXzcReRo2qPXq1Md8an3drtbH/001A+wMQbk3bVPXjEtifWrZYFfL9IdP1sh+8vF/LKr/cEA1Lz992rbrnNpnbTN7setndOqqUozOk3Q/cZmwtFgLS9J9kknWMockv8Kf3VZkZ1nydTQRVcg3qHP/NGWmXJlU+vIqOSqqVb/FKUsmGzwW0JmTPinT0Xn3A/J81KM+77T9c8c7qn6VS3UBAAAAADC6WQO9svXVsh1rV0A+Hfq5W9YjNbLNYYBQeKBZ2w4OPTNbbux+UEPdLRoaGFJbd7sqkgyOCn24Tds+CCo2/YkHIfkvhOS/cE5DaWYejX3Rp5YftWvowbOPR0f98h71a8hboxN1sy19TMHuRtUdnT7bb1Sha151XPOqa22zetuqZJ0eCIW9at7RMqN9jUcUvOZVcIFDG1dnEp5Nf39IfQdr1H4pyfzD94MaOt+uofMdKtt6WEcbnSotxCjL6COVvl6jmif/D8p71qfwygrVvPp0e4SvueW9aZHz7anB7TflzPPMtSkWUkMf9SgsybIjyeg8SSp5QYn4ekyPxjP82Ov3dE+asd1S7W+JWaH98t4xyVHhnHEPv6RLPtyjnrAky2yj82IKnW9RzftDKfbPIQ3uOqH62ZsEAAAAAADPsdknxVhapbYDPlUe9Cl2vUs1b3wq188OqOmNsqwvwY0OdajuQ78cDW41VdpkKZE0Hlbg7CHVHfMp9mBIB48NyfleuabHFtGxoGIlZarYVa/aCoesSxJDm2J3fep4p1F9o1ENvd+lodVtSS6l9GjPznb5xiUtc6m5pVYbV1gSEyiMRxS81KWDv3KrriX9cKlg907tPBpUTFa53t2v2tcnv0MsotC/nlVri1uBy+1qPGHV+Z9OmT11Iih3QyLMM71So86/2yXH0snlj0Z079anOjecw2WlsYC6dtTIPSqppEyuhr2q3bBcFvPjdRNQf/chdXwcVPDDRtX9uVu9DbbJ5SqV6+iIXJJ036PG11vlk1P7L3RmFDI9w2yTq8729P83u9Rz1qeyilrVv/34mtuIvHfc8pZUqHZPvWxJP6iAbp1T1yVJKld9ZZLReZK0rExrJPUpKO9IWFXLUl12G1XgWmIsn8ZnRMyKXe/Szga3guOSlpWrqWG3Nk7OlKuJmKLh2xr6eEgZbfGJoM4dG5Iklf84/ei88MAebXvfp5gk66Zm7d+5UcstZpkWJMLdwd8c1KGTddqTdvQhAAAAAAB43s16Dz1Jsmzq1Pn3XCorkTQelOfgNq3bUKP28wFFJjJvzPPhkMqPDah9x2QQJkklFtl2HtaJHYnwJHZxSP6Zg82kl5rV+0mv2nY4n4R5kmRa6lTzr5oTAdG4V0Mj098c1dCxQ5NhXrXc3ftV9Yrl6WyoJaUq27Rfvb3NciQJZ56441bLZJhXfbJX+yunfAdTqaxr6+U+US+rpPCHx9V/d8p7b32qk6OSVK4Dv6p/EuZJkslcKuurVWp+tyLr0XnB3tbJMM+p/b2Ty2Seum5sqtrXq/MHnDJJCnW3qudOlo3kIPz5TcVkknPFlBvoTXyp25clfWe5rCnfWSgx+QZOKizJ9Pbm5KPzJMnk0Lq3E+svcPSQPClm1Q0PtOjgpVRNBXSyLRHmmdY261x3u6rXToZ5UmJG26U2uRqaVJFBcBq75tHJsKSSKm1ONzrvwZC6fjUZ5u1wq/dAlWxLE2GelLj82rWvV+ffdSiW6ehDAAAAAADwXMoo0JMky4b96v2kV/vfKkuM8HoQUN/7NdqwYbfcl8MzL4VNZn29al9NFkqYZNtUrcS4Ka8CX8x8he31qtT311vmUMWKxD+HPg89+9zdQfVcjEmyqLqlXrZUo5OWVqm+LtWIrJj8npMKSbLs2K/6V1KM5FvhUvVqSQrIc3XKckzEJteP6UnAMmcxvzynE204f3ZArqWpX2p5o0lNKyUppJPeQJ4WIOWCKRT0SyrX8qmX0t5N3J+uzGadMfqy4O7269T5mCSrdrkcae5TaJJj2145SySN+9S6ZZtaz/sVuh9V9EFUkVG/+t7bpsqDPi1fmXyMYXS4ZzJkrVDbgSSXXmclrP7f9CVCup0uOdIMIA1f6pF3XJKlWvvrbCm/o+WtetWnnZEEAAAAAAA872a/5HYqc2KUj+uHAfX9JnEpZ+yBX10/3aQz65vlniXAcK51pA5zllrlkJTbnKEvaOHkqKvYtGQxctOngCRZ3tTGVEHcpDJ7uaSemU9M3JDvbEySSeVrU4clUqmsL0m6KgXvjUmPx6ItW65ySUPy6viRNbK+WyFrrrNfPBbwqW9ckirkWjfL2L4FVjkqyqSbQcUujSjYYFOKi05zEJGv+6xuPBn19UcFr0oqjWikt0u3Hz8cHlFQUllgUF3/9vTdy9+oV3maMDIfghd7EvvAys2qeHmWF1tcOnwiorq6LgXGg/K8v1ue9599iXl9m9oqb2tTXUCyvDDl0tmo/JcTl8eaKqtSjwTM1C2vem5Kkk2b16fbYhEFriaCWstbG2VLt28tKJN9vaTuOS4bAAAAAACYN9kFeo8tSVzKWfVDv9y/aFbXtaiil9q1LbZQ5w+7ZEkxCs1qSRM8LcjsHnKxaFihW/cUuuvXl2N/1OjVG7o3FlLwfvLX3/vcl/jHymXKeWBSJKzEWLiYenbZk0V+M42GFdHkZAmLKtR0YFBXDvoUGmjR5ktH5KysV/WmcjlmzD6b6SJNjgBcYZM1g49IzMoalMIP9SinFlOI3ZbvqFt9M57wq++kf8ajwYvuKaFthdq35XNhkpgIaLA7ce1s+ZaNGe0DphU1cn+yTr6PT6lnwCf/aFSJ2WnXaOMPalW7vkyxTwYTL37JosVP3hlS4GLiX+Ur5n5hceBS4jJhra/SxrSh573E5cySbEsZfgcAAAAAwNddboHeY0scqjl2UevO7tG2wz7FLreq5WOH3JX5DxWiN/t06Jcd8t7J6OLemb6xuPiXek5h2dSpi8s9Ov7LDvXdjMjX3Spfd6tML1eo/qfvqNqe9fy2CYsW6oWs3hBS6L5ky3bii1RMTjWPjKj58f9HOmSv65Hz4EV1vv74O4XUt2Oz2kdr5L5c3AkxYiPeJyMZK1ZnsQeYrXLuaJNzR/KnA+FEWGlZaU1678PFi+e4t8X88p5P7OsV650Z77tzbhcAAAAAADz35hboSZJMsr59QHt9G9R6VQoMXFGosiqvEx/ErneoZlePQpLMKyvkemONnEuterHMIrPJLHNJRJ6GRPspfZWPcWk5zgI7yfyyS82nXWoKBzR4/pS6zvsUueNVR92Qhn58Wid2lqW5nDeFB4/0UMpiQg2rrPkK85IIfeGXZNGql6YsUTSkwC1Jlau0vHBNJxGTfzhxDzpVbtSavGVdId2+mgjb1pSl2NO/mlsLsZHhySCyShvXZrHgc2wXAAAAAAA8/zKeFCO9Utmck/f4uhVWsklqcxdUz4FEmGer69XF021qqqyQ49UyWRaZZZ5l0oGF5snRgtdDCqV/qaJjY8mfWLRYL0qSfAr9PquFT8pkscnV0KmLwwNq22SVFFPg2KFnZ8adhXlxYol0a1ThDAYthkOTF7qusBRwpGJUoUBQ0hqVTZ0QIxiQV5KjzJp9YDkXMb985xP/rLCnu/dhlm4Nq+eWpJIqrbNP/VSzLJOTs/i/mG1vSycm/+XJi5g32NPfE0+StFAvWDJtN6qxP8xh0QAAAAAAwLzLU6Anjd2bDIyemSQgD+7f1o2wJJWpYn2KEWwTY4qMJn+7tWxN4h+3vPKneE1CVL5L3uRPmZarbHXin33D/sxm9M3EAosq9jWrWpIUkO9mJOO3mlbYVJ5YInmGZ4lQJ0K6MjB5iei6VXkdPTm9ncC/SFpr0/IpGyoxas+klS8V9/5usc986pckVag86ezKOZgIy3MycW87y47pM89atWpt4jsGe4cVnMixjdgN+S4k/lmxLs1EMlPafbx/Br1+hdK1+8An78UclwsAAAAAADwXZgn0IvIedcs/2xCwsEc9ieREpu+sLFBgFFL4QYrmP+nSyXDy50z2daoqkaSAOo56FE4RdoQHWnTwUqq2S1X+RiI+i51tV9dImgBtIixv95Ayj+aeenFRFqHTonJV70iER0PvtciTZnRf+JMOddyUVOJU/Rv5m992hru35R+ffl+5x6P23tSqAjadzO1r/Ynw1e7Q8nzkeRNR+Y81qvVyTCqp0t6tM79Q2YbqxD0Cw11qOeZXNJdQ75ZP/eOS5JBjRSYLbpJjXVUi7L7ZoY5PUhTDRFiegwc1lMMiAQAAAACA58esI/Qefd6l3ZtWa93OFnWc98p/PaTIg6iiDyIKXffJc7RRG7a0yjcuqcSpAz9w5PeyyiU2OZZJUkw9ba3y3IooNhmSxCJBeT+oUeWvolq+IsX7TQ7VvuuUSVLscqsqf9Ql3+jUzwjJd3K3th30681KV8rFMK9v0v61Jkkh9dRt0u6TPoXuPw06Y9GwAgMd2r1hk1qmBX6RCy1qPOqRfzSi6JRsNBYJyftBe2LW3JIqOV/JZs2ZZNvVpuplksZ9at22Ta3nAwpPaSB2N6C+97ap8qBPMZnk/NleVRTw/nnRzwMKavp95UK6/S+S7GWyFvV625BujyTWheXV5ZnPcHzfq/YDPfLeCis6PvlYLKrwdY86GjZpd3dIklXVR5vkTHa599IqtR1I7G+h7t3a1OB+Zn/TREyRUb88RzvkTTEzcyg4OQrU4tDyDBfc9GqtDqw1SYrJd7BSNSd8CkViU9r0yd2wTa0jb6pqU2afCQAAAAAAnk8ZT4oRvelVz01vInxKwvSySwcO7S9AYGRVVUu1PLt6FBr1qHWHR61Tny4pU83RNr3o3qxAik8off2wTv+hTjuPBRS77lZjpXv60su5p1dNZR71nU/xIQsscrWdVqRhp7quR+U/0ajNJ5K90CSbffmzl0l+FZ2c1TbFZ5fYVH8iRUCUTolNTX/fKf1kj3ruBOV5v0ae95O9rkyufYe1f0NhL3k1r2/TyEjbtEdtqr88ovqCtpzE44k4JNmWZvO9H+nehQ71XehI/vQih5qOdqp6Rep00rLpsHpjLap5f0jRa11qrOxK8iqn9m9JuuCTIxolrVyWeRCpUlW0nVa4Yae6rscUONmozSenvaTEqebTTVr+SZ/6Mv5cAAAAAADwvJkl0CuV68iwbCND8g37NHgrpPCt0OSkFyaVvmzVKttGOSvKtXGlRaYFhVlI0ytNOnfBqZ5fu+W56lfogaRFVjlWu1Tzt9VyLInIk/4TVLbTrYtOr870eDQ87TOqa1xyLjNL12dZkJIy1fz9P6tipF895z369FpQkfHE55e+vEqOtRWq+r5LtmmhZqmzXm3vvqihAb/8T9afWdYVDjk2ubR5g1PWXC8JLXWq6cxFuXyDOvdPHvk/Cya+m0wqfXmNXvv+HD/fqEZvT15aatE3/yKbS5kdqnq3SgunbquSUpWtdMi5abu2ry+Tedb93CRrZbuG1wbk+cc+eS/55B+drJolZVpld6ri+29qY9KpiSdHNEqyvPRidhOYlJSp5u8vynnpjM4MDMt3LbH85mUOOTdVq/atxH6QKvgGAAAAAADG8GfxeDw+3wsBAAAAAAAAIDN5m+UWAAAAAAAAQOER6AEAAAAAAAAGQqAHAAAAAAAAGAiBHgAAAAAAAGAgBHoAAAAAAACAgRDoAQAAAAAAAAZCoAcAAAAAAAAYCIEeAAAAAAAAYCAEegAAAAAAAICBEOgBAAAAAAAABkKgBwAAAAAAABgIgR4AAAAAAABgIAR6AAAAAAAAgIEQ6AEAAAAAAAAGQqAHAAAAAAAAGAiBHgAAAAAAAGAgBHoAAAAAAACAgRDoAQAAAAAAAAZCoAcAAAAAAAAYCIEeAAAAAAAAYCAEegAAAAAAAICBEOgBAAAAAAAABkKgBwAAAAAAABjIn6d78v88daBYy4ECmHgQne9FwBz9x4M/zvciYA7+439Sg0Y3QQ0aGjVofBwHjY1zUeP7j/9JDRrZf1CDhkcNGls8Hi/o5zNCDwAAAAAAADAQAj0AAAAAAADAQAj0AAAAAAAAAAMh0AMAAAAAAAAMhEAPAAAAAAAAMBACPQAAAAAAAMBACPQAAAAAAAAAAyHQAwAAAAAAAAyEQA8AAAAAAAAwEAI9AAAAAAAAwEAI9AAAAAAAAAADIdADAAAAAAAADIRADwAAAAAAADAQAj0AAAAAAADAQAj0AAAAAAAAAAMh0AMAAAAAAAAMhEAPAAAAAAAAMBACPQAAAAAAAMBACPQAAAAAAAAAAyHQAwAAAAAAAAyEQA8AAAAAAAAwEAI9AAAAAAAAwEAI9AAAAAAAAAADIdADAAAAAAAADIRADwAAAAAAADAQAj0AAAAAAADAQAj0AAAAAAAAAAMh0AMAAAAAAAAMhEAPAAAAAAAAMBACPQAAAAAAAMBACPQAAAAAAAAAAyHQAwAAAAAAAAyEQA8AAAAAAAAwEAI9AAAAAAAAwEAI9AAAAAAAAAADIdADAAAAAAAADIRADwAAAAAAADAQAj0AAAAAAADAQAj0AAAAAAAAAAMh0AMAAAAAAAAMhEAPAAAAAAAAMBACPQAAAAAAAMBACPQAAAAAAAAAAyHQAwAAAAAAAAyEQA8AAAAAAAAwEAI9AAAAAAAAwEAI9AAAAAAAAAADIdADAAAAAAAADIRADwAAAAAAADAQAj0AAAAAAADAQAj0AAAAAAAAAAMh0AMAAAAAAAAMhEAPAAAAAAAAMBACPQAAAAAAAMBACPQAAAAAAAAAAyHQAwAAAAAAAAyEQA8AAAAAAAAwEAI9AAAAAAAAwEAI9AAAAAAAAAADIdADAAAAAAAADIRADwAAAAAAADAQAj0AAAAAAADAQAj0AAAAAAAAAAMh0AMAAAAAAAAMhEAPAAAAAAAAMBACPQAAAAAAAMBACPQAAAAAAAAAAyHQAwAAAAAAAAyEQA8AAAAAAAAwEAI9AAAAAAAAwEAI9AAAAAAAAAADIdADAAAAAAAADIRADwAAAAAAADAQAj0AAAAAAADAQAj0AAAAAAAAAAMh0AMAAAAAAAAMhEAPAAAAAAAAMBACPQAAAAAAAMBACPQAAAAAAAAAAyHQAwAAAAAAAAyEQA8AAAAAAAAwEAI9AAAAAAAAwEAI9AAAAAAAAAADIdADAAAAAAAADIRADwAAAAAAADAQAj0AAAAAAADAQAj0AAAAAAAAAAMh0AMAAAAAAAAMhEAPAAAAAAAAMBACPQAAAAAAAMBACPQAAAAAAAAAAyHQAwAAAAAAAAyEQA8AAAAAAAAwEAI9AAAAAAAAwEAI9AAAAAAAAAADIdADAAAAAAAADIRADwAAAAAAADAQAj0AAAAAAADAQAj0AAAAAAAAAAMh0AMAAAAAAAAMhEAPAAAAAAAAMBACPQAAAAAAAMBACPQAAAAAAAAAAyHQAwAAAAAAAAyEQA8AAAAAAAAwEAI9AAAAAAAAwEAI9AAAAAAAAAADIdADAAAAAAAADIRADwAAAAAAADAQAj0AAAAAAADAQAj0AAAAAAAAAAMh0AMAAAAAAAAM5M/i8Xh8vhcCAAAAAAAAQGYYoQcAAAAAAAAYCIEeAAAAAAAAYCAEegAAAAAAAICBEOgBAAAAAAAABkKgBwAAAAAAABgIgR4AAAAAAABgIAR6AAAAAAAAgIEQ6AEAAAAAAAAGUoBAL6SeykZ5I5ImAupY36VA/htBAUWHW7XuRGKrRQYa1XghMs9LhOxQg0ZHDRodNWh01KDRUYNGRw0aHTVodNSg0VGD/1n8ef4/MqqxUbMsJkmRkEIPYrO/5UFI/suD8gx4NGQ7rKsNttSvvd4h+66etB/nPHBRnZtKkz953y/34XadGQ4pKrOs67areU+NHEtmX8zMRORp2KDWq+leUy33SJPSfMtnBE6uU82JqCSn9l/olCtvy5pcLDom88KFkqR7oz5p2SxvmIgpHBzSlYEhnbv0SNUfZr+MkQuN+t4Bn2Kr9+viUZdSbD1pPCTvyeM6NTCk0APJvKxcrh/uVv0Gq0zZNZnaXPex8ZA8R1vVdSGgyLhZ1nUuNTU0ybk0Xws4mwLX4JNmgvKePjVtW9Sqdn2ZzAumvzj/dZGViYgCn5xRz0eDunInophMKn21SSeOVcma7n2xgLq21sg9KlWfHFHTK4VYuCTNFqsG57ivRkd98rh75LnqV+iBpEVWVR90q2m1efY3R7xq3tCiIUna4dbI9H3uvkeNr7fKl/TN5Wq72K6KZ0pwnvexZ+RQg3nqN2Y7XgSO2lXTnfy95jq3hndlvnayPTal7ucj8r67QS2XpOJto/SyrkFJkRG3Dr1/RkOjUZmW2FRe06S9b9me7Q9vurVuZ5eimuU4kvGCFrCPmogpfHNQQ16fBi9fUfB+TFpkVfmWJjVtdcpSkse28q5INTgRVfCT4zp0ol+B+zGZltj0Zt1e7X4j2XFw0oOQfJc8Ghz2yXctpKhMKn3lTdU21qpq5Rz3h3y1ldXxvTAKVoOpZHOeUMz1k0Nb+eznczcPx8Fs+sNcznsfm4jIf/qQ2j9KbBNJMi0pk9XqVNP79XJMPwXKpa1c+pY8K1YNRq716MhvzmjoekSxklLZvrtdu/+2etbf5nOp9+gdj463d6n/ekSJPdMs6wqLrFsOq/11S17bmj/Fq8Gc1s/Xta35EM+3scF4w7eOxG/E4/F46Gx860/642OpXhs6G9/zo33xQ+cG47d//yh+z9MQ/1bnjfSf//mZeOXPP40/TPH0bff34g2eFC3e6483fKcyftBzO/7wq8RDj/7wZfyK+2D81GePZv1qmXkY//QXlfFTwVRPfxrf93j9ZOVG/Mi3GuL9f5jb0mXU0vFvT67DR/Erv/xW/MhnqV75MH7l13XxPb84Fu//1y/jY49+m9sy/tun8X2vHYpf+R9H4t9Kt7/8+434kf+nIX72d2PxR5PbL3jyWQMAACAASURBVP5oLH77o4b41s4b8XxtwTntY/9+I36k/mB88PdTHhu7Ej/yXw/GP/23fC3gLApdg/F4PH5vML7ntcr4wXM34vcmV/yjezfiZ/Z+N16ZdFsUqi5m9+h3Z+J1G7fG9/3DlfiXf8huL7ntrozv/OhKvP8n6eog/4pSg3PZV7+6F/+0bWv8/64/Eu//7F784RyKbyzVPveH/qf7cUbmbx+bIZsajMcL0G+kPl7c6PxW6v4rJxkemzLp57Pe5oWTeQ0m3PPside5bzw5t4jHH8W/PLcnvtN9O/nn52k7FK6Pehi/0vbd+Na2s/Ebv3/49Jj77/fivz2+M/7tvzkSv/Hv+Wwvz4pSg4/iNzor49+uPRb/7ZMD4cP4vc/Oxg+1D8bvfZXkLaEz8a2v1cVP/Y8v42OP199Xj+Jjv+uPH/ybb8cbPPey+ppp5dpW1sf3wih0DU6V1XlCMddPjm3lv5/PwTwcBzPqD3M9733iYfzTn387Xtl+5ck2SSnntnLoWwqg8DX4KH7j+Nb4d2uPxa+EJn91ffUw/qX3SHzraw3x/jTd4VzqPR48Fa/8TkP87O9S/dLLY1vzqUg1mNP6+bq2NU/yH+j9oT/esP1s/Mt4PB7/7Ej8W+8Mpt95pkj5wy5jX8bPbt8aPxtK9tzD+Ke/+G58339PVryP4r/9zZn47SJ0kI98h+Lf+uWVHA74RQz0Or8VP+R7FI/Hx+L9P/l2/Fgg43fmsIyP4ld+ObldPksf6H35D5XxPd5k2+9hfHBvZfzM59m0m6t0+9ij+I3OnfEjycLh0Nl4XU7bPQcFr8GH8U9//t3kPwa+uhfv/8m344f+NbtvmntdzPK5nx2JV/7NofiVXM5rQ2fjO//mVPz2V2PFD/QKXoNz2Fe/uhfvf+e78YaPvszL9spfoJdeofaxpLKqwUL0G89boJdhP/88BXrZ1OAf+uMNSb/To/iVX9YlPV7kZTvMWx/1KP7b//d78Z3n8hg+5VsxavDzM/HKvzmV/Nzx9/3xY0nPN9O41x9v+M6h+G+L0UmlbCv/x/dcFboGn7wiq/OEYq6f3Nt6LgK9Yh8Hc+wPs/7tORmS/DaH34wZt5XvviVHBa/B4Kl4ZYo/Dj3yH4l/77+ejSc9ysyh3uPxRFBZ948ZHr/m2Na8KkYN5rR+vq5tzZ/830MvHJJv0UK9ICk6NiYts6S+fDLfRv3yPHhNq5IOCQ4pMLBRG9cmuxTMpG8u8cszksFQ1DmJyX+5TxV2W/4uD827iEKfS6YSk6QxRUYdevEbhWstdvOkuu7v1TvrZ7tEL6LAyGI5VyZ7nVm2VxfL/7si3Nsh3T4WvaK+kQq5XkmydZetUcXoKfXfLfgSFr4GIz55/8Wl2jdmDknXAovWrHeo79rtLD6wQHURC6irbUy7TzbLmfUKiMh71CP731WrrOjDqotQg3PYVyOfHFLPyhPqfDuPl7kXXJH73mxq8HnpNwoo837+eZFdDQY/OaUXt2xMso1Ncq4vU8c5v/J/djGffZRJjrXlCoTHit1w5opQg5Hf+WXavC75+l9qVax3UOFsltniUPmKewo/yOZNOUrVVt6P77kqUg1me55QzPXz3GyLHBX1OFjE/nDikSRpYQHbyXvfkttSFLwGA5fPyLJju2xJbt9gsper/KZP/vv5aesZsZhMCxame0X+2ppPRajBnNbP17WteZT/QO8rPdlhYuNRWcyZFUw+hEe8ir7lVFmO7+//LMWBcSIif3eLdleuk91ul92+Whu2NqvjYlChgUZtOh3MrIHYDfkuVKj81dQ/aiLXetSya4NW2+2y29dp84/b1XezmDchfSTFHLIuSfz7Ydgs8/9eoKYmgur5xYhcDRUZBE4mmc1+BUeTlU9MoaBf5pLUP9Wjd7zq2LNNG9baE9tw/WbtPtAj/32/uta2aCia2SKn3ce+CMhrX57inmwWWVcEFAhm2NBcFLoGSyvUfrlJthQnM48mYjJlk5pkUBe51GB0uEeBLfUqX5TFsjx+76UjOrSkXrtWzkdkVYQazHVfnQjK0/2imrdl2ctGg/Iebdbm9Yn6W/36NjWf9Ck8nsOy5yKTfSyfsqnBOfQbxTxe5NxWVv38U4k+e7PWPa73XS3quVasY2E2NRjR7c+sKnspRV/xF1Y5/uWmQqnePtm31by++smxqfmoV7MdKrLto2JfeNT+ZPs93oa5r9Pg9SHZLIuL0lZOilSDad30KZDNV34QkO/Wi7IkO2ZNROQ/+bQPfdKPZrCvZNVWvo/vOStODWZ9njCH9ZN1XTw32yJHRazBwp+zReR9d3K7vd4qn3pUY39ai4m+2128CQey7VtyUvgatO0aTn0f2ZTBaY71ftM9eT6RuL+k7+CGZ7ef3a7mi9NX6tyO7/n67Zmzgtdgjuvn69rWPMrTpBhTb2gtST2yf/j43z7Zj0laVC/3pZoC3ug6rCufjOnN/5bqh6ZVy9f3a/DybjmnjxKYCOvKP/sV+6pcEdme/dERHlLrz05JWw6orbtNpZN/RYjdD8nvPa7moz6Fd9RmtISxz4bV/51y7U76mzKmwIk6HVetmn91UW2TJxexu371HW1QzYrX0t+8f66m3KhbkrTJrtbH/17nlSSVv3dR7RvyN9YrdP6QBt/Yq3MZ3GRVMqv8B/U6/vMO+V5qlnPKjVJj17vUMVKvtj3JVmxMwdN1ahhZo7Z3T6jeYpZpgaRYVOFbQ+r7eaN6xh3a/ydJs/7WT7+PRcLpS3vxUoei44XK85+HGpQ07lff6THt+lXmraSvC+VYg1H5L9/Wmh8k+cv2rN/Bp+PvS/vPO4s7Aq2INZjzvvqFT/1ldm3OZsWEvWre55e9sUm9P26frL+IgsNn1LJrSGvssTRHopjC1z0a6u2R58lERi7V1tWr4i8zX4hZ97G8yK0Gc9sWcztexB7clq97UKc+Gnpys+3yLbv1zjaHSmecPM+trez6+cn3XGjWnn9cpgMtJ1T/fqlMiily1y/P4Uptvtap3oYCjbTMqQbv6d516cVUn1lqkTUc0qNkz/3xirq29yny/b1qO9+WmGRiPKzAhVM6+Nagqro75UrWhWXZR8Wud6muM6KKxtO6uMIis0nSREzR8G0Ndjdo27W9Op3pOo1FFBw4pDpvuTq7Zy5cXtvKWjFrUCp9aZWiB4YVrLTOGEkTHRmSTz7prqZN3pNc7K5PXXsP6dHPeuWYvnImwvLua5TnpSa1f9gm65LJF4xHFBrxqP3tRlWcTLGvZNtWOjkc37NW1Bqcw3lCMmnWT97rIoNtkV0/ny/FrUFJRTpnK1XF+yOqkCYn7AqptoCTN+Wzb8lasY+DKYQHetS3waWLM75jjm2trNHwSI2kxKQxp5ZlMilVrt8rn789s1XMGsxt/Xxd25pPeQr0nnZ0kYFGbRit1UiDLYuCyYP7fvkib6r+L1O9wKyKhr0a3FGnjok21a63yqyoQr5zaj94RubKKjluTXvLREh9+47L3NyrpmlDNU1LrHLuaJe1pEZ10cxGQN2+1q81a3cnrd3opYM69Od71bvr2bDItNSh6sOnZTu6TTWyFC6MedLRBdRhPyXrhU65VMCD1n2vOjx27f//sxjp83KNeg/1qaV+s7pKpPD4YjlfeqSQKtTeXSVrkhOU2NUO1d10qfeoS5apz5vMsrziUlOXRbH1nsxGQM22j32V/u0LFxQyHnoOanA8pL6WZoV29arz5czflq4ucq/BsEZvWlW6SNJdnzqOdkwJhNLNbB1ToLtL9356VM05jOybk2LWYI77avT3Xyr8DbvME1EFPj6kDvdQ+tnXJoJy/+yKyv+/tmdPPE2lKtvQJPdKjxq3eKTK3TMbW7BQKrmhKwGnavf0qumwSZpIBDtn23aq429Pz9gnUkm7j+VNjjWYw7aY0/HCZNLta36N/bBenVvaEj8sJ0Okhj1hHT78bF85p7Zy6efVo0OX9uv8309dDpNKlzlVc7RXpXu26eClAbUV4vLdHGswlm6kaZrLenwf9Mh6slf7p+7HJRbZKvfr9Esd2tbg1vKzNdN+0GXZR8UCOtn+R9We3C/n1MuaFphkXmpT1b7TWn50pw5eOpF2nT6d0VgqXd+sE6erVDb9Mqk8tZW74tWgJGlFtdrWblPdPpM6G6pks5gUCwfUf/qQjv/OKdemWRZ36kzfKlP10fPqXD1zGSMXD8nzV+06/va06LykVNa1NTr+kkeNP3Nr+Znp+0r2baWU4/E9a0WtwVzPE5JIt37yXReZbIss+/n8KXINzuc5WyHNtW+ZiyIfB5OJXG1XY69VJ7rLk5635bOt2eTSVl5/e2atuDWY07b4urY1j/J/ya0k57KUmWbBRP51SP719vT3TrC41Plhk1641KxNr9plf3WTmv/poVxdA2r/fpL7Qd30qOMbtapN86PRUunWwM4MfqxMBDR03iHnXyXrmoI6dzSm7ZWpPsck25ZqOWdvJU+sk0OsCyWqoc5DevFvd8mWTcY1EdbQ8EI1nT2n3u5zGj5/XG3vu3V6yx917p+T3U0iosGPrmj7rjQnLiaHmi+3qTyDc6iM9rHnRNFrcDwod0ONfN/tVeemLP7anbYuNIcafKSHYUm/96hxW4ei32nTwLURjYwMq7fBrtBvGtVzJ8mH3elR6zWXmvI4EjU3ha7B3MTGo5KiChyrUZ3Xot0n/1kjIyO62n9Ymxd9qpb3hzR14Hp0+Iz6y7en/iuyxaXayhTbtrRCnZd71bbD+XREyoJEsFP/q+0Kt/VlNtx9tn2sQApXg3M7Xtjqrmr4WJNcr0yOEpGehEgHVvTo1OWpW3AubeXYz8umpndS9NkLLHI17Faoe7AIlzoUvgZNbzerPkXfZnqlXk32LnmuTfvLcZZ9VGzEq56/rng2SHi2Jdm2VCk6MKR0V3DZdg0nav1jt2rNXrX8XY+C005489VWvhT+OGiS7cdunVgdVseu78put+u7uzoUWNqk82cyuIyztELtIyMauXpR5z54TcEP9qj90vRzmZA+/UiqWJdmHKzFpdq/PqPBm3NtK4Vcj+9zVugazPE8YbpZ1k9e6yLDbZFdP184Ba/B5+acLd/m2LfkTfHPRcOXWlX3gUn7u5uS3lvv+Zff355zNR+ZDIovTyP05ltEVy75VVXTOftLlzhUc/icaqY/fvOe/NMGV0Z+H5L1r1z5GdVxc0h9r5Trn5J1jPdv60bYInu6DnqJtbCX3BZR7OpxtWq/BlZnN2It1NuowIpeVUzrIE2vVMvp3aaesnOqfmb03D2Frq6R41dzXmRltI/NUk0P/zQmFep+hPMp6lfXj1o0Wt2rztezPNlPVxeaaw36deinIVV9cF5N9qf7mmmpTVXv1su9p0/hD6r0ZIknQur75aA2/rdzSUd7fq3MZV89v0d1r+x9dgSVqVTWtfVq+1OLjl9bo+ZXE+s7dMsr67J30rb14jKHNJrd4mtRmewlgwrcr579ZHOWfWzeZbstCni8sK5wyDMS0v51tjm3lWs/L9m0fGmap5ctl+NWn0LRKlmfkzk2TOl+dMSiKW+c7Cj7ZppLxExavsKpQ8GQmldPBqo59FHRsXuKddfI3j3bK6t1T5r1PoempTZV7XNrzceNqnzPoovvPR1Bke+2imYu/eECs8o2Ncu9qXnaExH5RyWtzaB90+RIO/tKdWxplPsvzqnmycirqMK3fOp5fcplbyk4l0WkV2ZZq2nbSmIux/ciyrUGsz5PmC6D9ZO3usjTtpjRzz8PcqnBr/s5Wz76liLKvQafCg80a+dHy3S4uz5tmJePtjKVfVv5/O1ZRDkeB3PaFl/XtuZRfgK9sEe7N7XK/+SBDbIfnPbv9W26+H52N8XO2AO/fNerVL0y948I3fJp8V8dKNgJZnBkSI71p5+fE9hnxOQ/ukG7u5/+xa7H3vPk3z57jySz6k8Pq2YO6/ix6Ng9RS/2ad3F5M9vsHckaSsk/yWLyiqS/fwxafkKi7pGQqr+ywLFnhnsY6UWq3QpPPM+jJPG7gVlzm6oSubmqwbDQ2ptOK6FP/1Q7dlcvjOpcHVhlmVFTLGX9qrenmSdL5D0+ahCMcny+OkFUYVvhtSz1a6uZB951a6egvVjxa3BXPdV8+IXpfEx1TemGkEl3Ri9J71a6D8/LNTCDP9yW7S+N8canNd+YxpTHu+wnls/n6kXtDDvVzzkWoMv6sVX/Lr3B0nJQuOxMYUsLyjXxX1msqcc+yjLj3szu5IgC5ZN1ap6zyP/u+XPjDIoRFsZe55qMHZbgcsVsv8ii/eUOFS1c7HqfEHVvDx1HVaofTjPozlStjXFHI/v2St2DeZwnjBVFutnznWRx22Rz35+hmLW4Lyes82jXPqWzD98no6DiXvO1d2skPtklaxpz+8Ke8ydv7bypKjHwdzWz9e1rfmUn0DP4tLxEZekxI0m+1YMq219TJ6GDQrVjKjplby0klJ05IqufM+ltlz/QhMLyNO7UNXHnj3Ymr/xokIfBxV92zrHUXpB+QYWy3ksxSFlyXKtsvgUfiDZUo2EuB9SSCrQKD2THA3DGmlQ4mavuyKqH6hR2fUO2d1WXTzqyuvBsHRTp0aS3f9h1vYWa/F/Sf6ZpoULpT/NfL1l5RUFP2+Wc8VcljjDfewvbaoYGdGXsQqVzripdVA3/9km2+YCDSmZhxqMfdGnPT/yatXRXtWsyOUEcZa60Fxq0KrXKp1qvxrVIynJKBiT/suMWrOpaWRETTNeGylCX1bcGsx1XzXZK1RtuaJYijvBLix5QVOvGbKuqFBodEzpxuLcG/VLymxioSdiIQVHzLLPOuJ19n0sb3KtwWy3RQGPF6Ev/LKYN+alrdz7+YBu35VsqUbpjd6Wf+UyVeX9N2muNViq5X+1WJ5gWFo5c9RM9KZPN76zOem28Ae/VEylKUbpxXT7ll+r1k29ciD7Pqp0+Sqpza/QjrICjGKJKjblz9SFbSsDxarBDES8fep/u1pNORzyxx5N7WCtsm3wyvfZAZWvzX8Q82xbT839+J6LYtdgLucJCdmsn7nWRb63xYx+Pp+KWoPzec42f+bSt8yu+MdBTUTk+6BOHX/ard7D5Rnc23EObWUtl7by99szJ0WtwRy3xde1rXmU53voRRQelRYvNksaU2TUKWvBR+hH5R/26k3nqtxmN5qIyNd5SKFdbaqa9gPCZHdp1+endOp6moGVdz1qXt8uX7qxl3d86l9UIUfKy4jKtLnBpDPdgRRDOGPy95ySL933yJc/3JN/WakWS4qOjUkvWZ+Tv2xZtWptSMEUl+aF747ptZXTS8uijdtsOnPSo/BEio+diMp/Yptqzqe7l0yG+5i5XNt33tDwyMytGLvm0ZmV1dqY7lKyvChODUaudmjnT0ZUftqd+wnmrHUxtxosfaNe9bf6NJhsn3kQ1IjFluW9vYqkGDWY675qsqn2x8t1csCXtK8K3br9TB2a123Xm0Nd8qQqr7BHp7qTfNJNt9ZVdsif4jY/4U/61F+5UWtmO6HNYB/LvyxrMOttkevxIiLvu6vV+HGKjTHuT/xha93UP2zNx7EpoI4jKfrsiaj8/3hO1m0bU18Clw9Z1mDZW02yXLqi0PRlnghp8KOQdrkcSY8dsbPt6krVt93tV9/ILrmSjRzKxsub1bT0lDo+yfB+aRkKf9KjvtXlckxdMQVqK3uFrsH0Yl/06eBHVp34cfLtntJ4QH2991T118unLpzKf1CvwNEuBdLdpDtbSdtKyMvxfa6KVIO5nCdkvX7mUBfZb4tc+vlCmN8a/LrKuW/JRTFqcDykvn1b1WVulntfJmHeHNrKUfZt5eu351wVpwZz2hZf17bmUZ4DvYd6OPZ4h3mkh+EXtbjQN+6M+jV0sUrODE56I6MhRadsmOioT+49ezRkO5z85rILylRztFbhn9ep61pYscfvnYgpejco78ndWrfTK9uR3XKmaT7o65f5DUfaJNe8/oD2mjrUeMKn0IOnj8fu+uX+8fd0/P94U65Zv+HcxaJ/VGyy046NR1X2jefkJkWSyrY26eGxVnluRZ5ui/GIggOt6hhvUnWSv4SY1x9Q58t92vOeR8HIlGIejyh0rU+t2zepI7JdbW+l6eWy2MfKdhzQ4l/vUd+dp0lEbNSrQ70mde5LPltTfhW+BqOXW7X111L9mXa5knSCsWvtWnciMOvnZFIXc6rBBWWqPmjTuZ+1yxeOPXlf+HqfWusH5WyoKML2yF6xajDXfdW8vkl777doz9ngk/40FgnJd6JGB6fX4YIy1fxqo3z7WtV3fcr2iyXqdtvPAlq11TGzkZXVcm8Jq/mt3XJfDulJ6T5ItFPZa9WJBuesB9OM9rG8y74Gs90WuR0vSlWx57Cs57Zp23t9CtydVhM7GhN/2FqWj7bmolp71/u080dd8o1O9vUTMUVGfXI3VKqjZL8OFGSG1KeyrsFF5dpbGVDLBz5FnvRRUQW62zXyVmfKe5Q5f1otU/tOtZ4PKPw4rBkPK3C+Vdt+NKKNR9PMWpoxs8r3ndCqgWnbfVLsQaK9zVt7np1oZLRPNZWN6hgIKPzg6Xse13pl92K1vTt9tEaObeVd4WtQkhQNKRSe8h1jie9Xdyym2r9PdkP3qHzvb1bNgR75RiOKPn7rkxqsU+CNwzMnSnm5Rp11UbVumtYfSlIsqsioT1271qn1mYkOcmsrX8f3uSpWDWZ7npDb+smtLnJrK7d+Pv+KVINfV1n3LflX+BoMqWdXnUbsJ3S6ziHzjGNdWH07G+VNNlNMrvWeixzaystvzzkrUg3muC2+rm3Nlz+Lx+Px/H1cQB32PtmG21T+p9mnuNZNt9bt7FK6uZbK37uo9nSzF93s0jqvQxf3zJaURjT0/h61ng8oKpNKX16j177v0uYNztlvrB0Nynv6lM54ryh4PyZNvn/jlmptf8Om0rQn3BF5f7pHD99xzxgBmPTV13p05DdnNHQ9opjMsr66UZvralW18p467DXqkQp6P8LIQKN2Ruo1sLNs9imuFZH33Q1quZTmAxfVy32pJvU+IClwcp1qTkzdC9LcK2w8JO/J4zo1MKTQA8m8rFyuH+5W/YYksxRPXdJrPTrS7ZHvWiixvy2yyrHapeoal5zLZtkBMt7HHjfmV0/ncZ26EFBUZlnXbVfzuzXPjmQomMLXYGSgURsOzjImZ4dbIw3ptnp2dTGXGox94VXXiVPyDIcmt4dLTQ1Ncs7WbsSr5g0tGpr6WBHux1LUGsx1X52IyN97RMc/GlLgfkymJTaV1zRp71u2JCdlerL9HtetaUmZ1ny/Xk1bnVp46fH+lKTu7/vV82u3PFf9M95nmfWENst9LG+yrMHHctgWOR0vJqIKXjqlU/8wqCt3pr8vdWNzPTal7+en7sfVco80yXrHq1O/eVy3JpW+Uq7tP3xH1a8WviPNrgYfiyl0sUsdnX3yTdbEm3X71bRp2rFpSp/rPHBRnW/omVrSIqvKN9WqdmeFymY7N8mmj5qx3RP1tMruVMUbG1Vut86s3VhYAW+/+i4OPzl2mpbYVL6lVvWVaWowl7byqjg1GLvToz1NXfJNbjfH6nWq+P7bcs0yMUV01KfBjzzyXH58PEscl6p3bJcrTQ1O7w8ls6wrHHJsKpdrdbnKktzoLdu28nN8n7uC1mCyd2Z4njCn9ZNlXeS3rcz6+fwp3nHw6Xsz7A9z+u0ZkHt9jboepHxLHtvKvW/Jp8LXYODpuUNKTu2/0ClX0knNsqv3yMVmbdg3lOSZx9Ldpzq3vmVOvz3nrJg1mGPf+3Vtax7kN9CLeNX41peqvVwv290+1Rx5QYc/+JrdjPRrLnBitU79xT+p83Wz/B9skP//GlZ9Hm7CjyKhBg2PGjQ4atDwqEGDowYNjxo0OGrQ8KhBg6MG/1PJ8wg9AAAAAAAAAIWU53voAQAAAAAAACgkAj0AAAAAAADAQAj0AAAAAAAAAAMh0AMAAAAAAAAMhEAPAAAAAAAAMBACPQAAAAAAAMBACPQAAAAAAAAAAyHQAwAAAAAAAAyEQA8AAAAAAAAwEAI9AAAAAAAAwEAI9AAAAAAAAAADIdADAAAAAAAADIRADwAAAAAAADAQAj0AAAAAAADAQAj0AAAAAAAAAAMh0AMAAAAAAAAMhEAPAAAAAAAAMBACPQAAAAAAAMBACPQAAAAAAAAAAyHQAwAAAAAAAAyEQA8AAAAAAAAwEAI9AAAAAAAAwEAI9AAAAAAAAAADIdADAAAAAAAADIRADwAAAAAAADAQAj0AAAAAAADAQAj0AAAAAAAAAAMh0AMAAAAAAAAMhEAPAAAAAAAAMBACPQAAAAAAAMBACPQAAAAAAAAAAyHQAwAAAAAAAAyEQA8AAAAAAAAwEAI9AAAAAAAAwEAI9AAAAAAAAAADIdADAAAAAAAADIRADwAAAAAAADAQAj0AAAAAAADAQAj0AAAAAAAAAAMh0AMAAAAAAAAMhEAPAAAAAAAAMBACPQAAAAAAAMBACPQAAAAAAAAAAyHQAwAAAAAAAAyEQA8AAAAAAAAwEAI9AAAAAAD+V3v3H9vUnef7/7Xqyuii64qvgjp7jbrCM6MGIWGoSMQWMxWkfIfQfkvamZS2ENhNYDSQ7oa0GqBafny1JNUWOlsStASuhqQaCKMSqhnMaBqjS5O93BgN40glRlvhqoOj6Y2lolgX4Z2ssBqd+4cTyA/b8Tn+kZz2+ZAqUcc+n4/P57w/n895+5zPAQAbIaEHAAAAAAAA2AgJPQAAAAAAAMBGSOgBAAAAAAAANkJCDwAAAAAAALAREnoAAAAAAACAjZDQAwAAAAAAAGyEhB4AAAAAAABgIyT0AAAAAAAAABshoQcAAAAAAADYCAk9AAAAAAAAwEZI6AEAAAAAAAA2QkIPAAAAAAAAsBESegAAAAAAAICNkNADAAAAAAAAbISEHgAAKvdGhwAAIABJREFUAAAAAGAjJPQAAAAAAAAAGyGhBwAAAAAAANgICT0AAAAAAADARkjoAQAAAAAAADZCQg8AAAAAAACwERJ6AAAAAAAAgI2Q0AMAAAAAAABshIQeAAAAAAAAYCMk9AAAAAAAAAAbIaEHAAAAAAAA2AgJPQAAAAAAAMBGSOgBAAAAAAAANkJCb64Zich/Yp9eWV+msrIyla0/qJ7YbFcKeXXXpz1lyfZtuTnblQEAAAAAAHZT+IRe1K9968u0+vmD8t8teGn2NhJSy/ZXdPBsjyL3xl67F1d8dFZrBQAAAAAAgDnkL9P/KSZfwwY1Xbew1e0d6m/wSJJCHx9Vzz1J8qv792+qclOJlXp+CyQUPLlLnYOSFm9W64lGeV2O3DYZ79HBdfvkr27V9be9Gt9a6PRq1Z1ZrkOXT6nKlf3mYteOaddbQ6r5uFVVT6R+T+hEmerOmqznhONlknth+T88J9/VgIKDcUkOlTy1Rhv/dod2rC+V8zGT5WSQ13oDAAAAAAAUUMGv0PM8v18VCyTHU1Wq+huSeWnF++S7kJDk0Oa9eUjmSdLgbfVIKi9169HWoorcTEjzl8mdbTIvHpbvna168a0uRXKv1TQe18Jpr0WvNumV9Vt18Ix/LJknSQnFPu9R54Gt2rCtTaGRAlTGhFT1BgAAAAAAKLQMV+iVaOM7vaqYdrtnVN1vb9Wxfkmvtqr3JymuUHI4H/3bValjVyvzUNUM7kXkv3pRPb++r4qWZlWmuXpsThtLvknl8nw/D8k8SdEvbikhh5Z9f0LmLhFRuF/ShiVyz7SB0ZhCv2nT0RM+hbNMnnl29qp3+8zvi18/qk2H/ZKrRo2bJmcW41cPqvptvxJyqPTlRu3f/pI8TzqkREyR319Q08EOhT7v0K6Di/TRe1Vy5eFKvXzUGwAAAAAAoBgyJPQkh9Op6amlhZo3/uI8p5wLnNPeUXSDPh18t0uSV97ZrotVowklJEluufJyIWNCkXBQUqWWLJ7w8mBYfZJKPW6lbblEWP7323T844BiI5LkUOlTixT+PIvr8+Y75Zw/w3tGw7rY4ZfkUGXDDnkmHmSJoE4d8Sshyb39tD5o8Dw6Bh0lcj9br44PF2nPa00KXDuqtt4KNa/PwzGYa70BAAAAAACKhKfcfmPd1sDHksrKtWRCviv2xYCiksq/l+H6vHu31f1RMpnneMKr+pO/1fl9+UuVxnvP6cygpMU7tW3d5GRc/JpPXSOS5m/Wvl2eFAllSa4qNb7hkZSQ/3KPivUQ4Ez1BgAAAAAAKBYSet9U0YhujUiOFW5NvDH0zu2AJK+WZLzfdp6cKyrV+P5FXfltq+pW5XHtw0RI7SeSt9NW7npFpVNul70d8if/8bxXyzNcAedeValSSboe1EA8/fvyZoZ6AwAAAAAAFEvGW27z4q5Pe55vUkBeHZr2dNSQWsrq1Cmp5ky/GldI8c/9av/FOXXfCI9dIVaqNZXbtHtnpdyTbolM9RTegJqeL1PT+P+uPqQrJ6o0KR0Vjyhw5aJ8v/5EfZ/Hkre5LnCr9GmvNtfuUNVSi1deJaIK+bvU+VFAwc8iSuaYnHKv8mrdhs169QWPSqYlgR59/0c6VVc24ZUsn6Qav3pQ6972T//DmTqVnZn6YkAHN5Tp4Pj/bjim3ncqHt2C+0Slms8UZt3DmL9dnVGlucotpujg2D/np7rde4In3SqXFJZfoT82q2JF6rcloiF1X+6S/+GTcmWpvTPXe4rRuCIBn9ov+BS4kTwWxo/jHbVjiUgAAAAAAACLCp/Qy1pCkQt7tfW9wNhacmOv3g2r5+xB9Vy7rY6zjfLMtM5ZphJutqm2oWP6Ax7uRRTujajpyQpVLZ05eTZV7HqLGt7uTPHgiLgiN/yK3PCr40SF9v33Zm3+XmEWXos7vqu6nXUP/z96o0P+Wy55X61U6Xj+KR6W/0JA0WWVqlv16Lq9xz3L06+nl0+jYfnOBCRJFT9JdZWbQ87xiozElXzm78wi0Zi0YspVhKMxBVobtPdX4UnHkyTz7T1jvSeIBdTyD3vV+fnkUh8ex5d71PyubVd6BAAAAAAAc8CcSejFe9q051dRbXy7Qzue98g1X9JIVMGzB7XnTEiJwU7tOunVv+0tH0vylKjqRL+qJOlmi8p2dkoprwIcc69HR8aSee5Nh9T8xkaVliS3lLgXVeSGX21R8/WOfbxHLx5OJiGdq+rVvLdK5U+WyPGYxp7K6tOxI20K3uvRsdq9mvdhq6oe5tI8auzvV+Ok71Cjjv5GmU0rup6tU/2zD2sl/+cd8muNNu+pl3c8K3arTZ0XAvK+8qbqn8/jbbRZil9tT+5jV712pHyQhVNuT6l0JSx9HNDAW16Vp8vohW+NPRVY0tdT/jYalf/AVh28GpfkkGfLfjW+sjH5pFxJiXhMQ592q/1/56veY0ZCavnpHnUOSprvUV3zIb1a5lbJfEmJuKKfXlTTgTYdfKsvq0QlAAAAAABAKnNmDT3fr3pUcfq8DlWPJfMkab5L5btOq3VLMgOWuOBTn8X10mLXffKPSHLVq/lA1cNkniQ5FrhUuqFOrbUm02j3enT83cDYE1lP6fKJOnkXjyXzpLGnstbp1OUO1SyWNBLQ0ZM9KviSb6N3dPuapGc9WjIhcxT94pYScmn594ufzNNoRN0fJlNwnu2Vaa9yc6+uSiYzR7p07HRo+tV1UjJxdrhN6fKvsStHdeRqXJJbm0/8Vh1vVT1M5kmSw1ki97M1at6SzdV52dVbksIXmsaSeV4d+rBD9c+OJfOShcq1qk6nfnNKNQsSqb8XAAAAAABAFuZMQk/r67WjLNV1Sw6V/38vjT3YoUe3B1O8JRsTr+LK0wMNolc7x5KENTq0q1zOdNud71H9W5vlkJS44lPP3fyUn9aXEQUluZa5J6wfmFAkHJS0RqWLC1x+Con+i2q5JWl+pWrWu9K/8cmX1Lg9+cSOyNk6bXijQ/7Poorfiyt+L6rwlQ7t3lSnzrseeZam+PxoWL7TY0nWN5q1b3Vuycus650IyvdBRJLk/dnhCVdhTuEs1443KnKqEwAAAAAA+HabM7fcep8tT7+O2+JSrZHUpYQSo9a2X/L95XIpoGj0jI5+UKbW7Z70CbisRBW8GpIkuV7eKM8M91A6yrx6SV3qUkDBUFxVmW7dNCnxuV9neu5MqFq/wpJKv/hEbac/GXvxPxS+LqkkokBHmwbG37twjbZVewq8hl5cPb/pSq6J92KV1izI9F6HPG+06ti9Pdp3OaL4jTYdvNE2+S3zS1V34pAWdbyikCTn/Ak7/48BXYpKklc1L+T6+AkT9Q4HdWlEkipVtS5zEtH5tFde9SiQY+0AAAAAAMC305xJ6LldGZIgjhmeeJqNpTVq3t6turMRhU7Wad15jyq3b9a29RUqdVnZ+rAi/cl/rSl1z/x2xxKVrpZ0XYqP5PeGy6FPz6njTHja6+ErHZr+alBdZ4IP/8/1xnOqz2ttUrjbo+6rkuTSzhfKZ27Lx1yqOHxRVzb5dO5818MnHmuBW+Wrq1T39zUqfyKkluuS5JDrO4/SkbHbA8lbcV3LtSTVWooFqncsMvbwDdd3tagoTxgBAAAAAADfVnMmoVd4DnkaLurKqg4d+aczCtwNyX8iJP8JybmqRvvfqlelxSfQOuab+1xgcEhS/taxc796Xv2vjv9fVL5dm9T0WZ06rtU/fLhG4voxrW7okvfIFbUW+YEY0Wu+5NVorpfkTXWbbBolK6rUuKIq+dCQqWJRJW9wrdCSVLcQLy7RQvNVncRSvfNQLgAAAAAAQCZzZw29IilZVafWj6+r96NWNT6fvNU0fqNTB1/dqqarFh5zKylh8oo77+JFlsrJSiKicL+kHyzRxOsGI+E+SaXyLi32AzEi6rucvDW5dOs65XoT7LhEOJRMti31yJ3qiriE9CCnEizWO+dyAQAAAAAAMvvWJfTGORd7VXOkQ729Hapf4ZAUke9Ip4JZ5+acco1dtTXw5dDMbx+9o8j15D8XLSzgPZmDYfVJKvW4J6yLF9XtG1FJ5XI/WbiiU9cnKN9nkuTSc09ncWtyVuLqudwlSfJsWjMpcelcOJYs7Q8rksudzSbr7ZjvzL7ce7GxqwsBAAAAAADM+9Ym9B5yelR3ZL/KJWnkkoLTF51Lw63lzyYfZRo+36vwDA/rSNzoVTIFVamyZTmvCJhWcg05h7xLJyShxq/ae3aJvpunJ/xmK9rvT67j53pJ3qfys83EzXa1X5WkCm2e8uRZx1KPks+Q7ZKvN265DLP1dn7fM3YV3yUF+jNn9MLXLsnataAAAAAAAADflITeY46xBxYM68FILhtyy8zFc6WbdsgrSdE2HTwZVDxdUm8kpLb3k09Lde/crDUFu0AvodufBTRtXbnxq/ZWleZx5b5sxBS8lrxtVWuX5ed22y992tvQqYgkz97dqpz65NkFFXrl1eTR0PPOQfm+tFKIhXovXqOqZZKUUNf7bQqlOQ4TN1t08DTpPAAAAAAAYN03I6G3eMnYVVlhdX7Yo2hC0mhc4eshxcbeEjpTp4Nn/Qp/GVdiQuIt8WVIHT8/qqAkLatSuZlbUp+o0v7DXjkkRc7u1qaGDgUGY4+2n4gpcq1DuzfVqXNQ0uIaHdruyf2JvWlFFL6uaevKxb5IPvm1/Hv5uuU1S4nbyfpIqvQsyfpjoQ/2qOVyUJG7j9oqcTeiwNmD2rq1SYERyfHsITVXp/o+DpW/cVo1iyWNBNS0dauaPgopGn901VwiHlX4SqcO/iqUx3q79NJbdcnbfwc7Vbe9SV03o4+OhZGoQh81qbahU87qzckrQgEAAAAAACz4Zjzl1rlGm3e65T8TUfSjfdr00djrqw/pyuqx57yOhOQ/nXyqbUqLq3Tsnc1ym7wl1bXpPZ1PHFTduz2K32jTnuq21FVc1ajWd2vkmW9u++aUqu5yv+qmvFryfKv6ny9kuWmMXRkoufTdvzZxWWI8oM6TAXWm/KNDpS836723K+RK11bzPWr8763SP+xV5+dh+d6tk+/dFO/b3qHmPNbbsaxere/GtOdtnyKDPh3b6dOxKe9xv9qqE1uHdeSjlJsAAAAAAACY0TcjoSeHPD/pUMfCo2rp6FHobkJa4FbF0+6HV8MtefmUDjl88l8LauDzmBKSNL9EpcvK5d2wWa++4FGJpfXlHHJXH1PvsyH5ft01efsL3CpfvU6VP3pVVSuK/XTZ2Td+ZaDk0eL/lv3n3OsPqW7Yr0D/gMJ3k1fWOReXqrysSq9sf0nlriyucSzxqvHcFVUFunXxtz59ciOs2IgkOeVeWq7yTVV6Zb0nr/WWJNf6Q7r4caW6Oi7Kd60vWf/5JSpdtVGbt25LHgd3feY2CgAAAAAAMMFfGIZhzHYlAAAAAAAAAGTnm7GGHgAAAAAAAPAtQUIPAAAAAAAAsBESegAAAAAAAICNkNADAAAAAAAAbISEHgAAAAAAAGAjJPQAAAAAAAAAGyGhBwAAAAAAANgICT0AAAAAAADARkjoAQAAAAAAADZCQg8AAAAAAACwERJ6AAAAAAAAgI2Q0AMAAAAAAABshIQeAAAAAAAAYCMk9AAAAAAAAAAbIaEHAAAAAAAA2AgJPQAAAAAAAMBGSOgBAAAAAAAANkJCDwAAAAAAALAREnoAAAAAAACAjZDQAwAAAAAAAGyEhB4AAAAAAABgIyT0AAAAAAAAABshoQcAAAAAAADYyF9m+uNftR8uVj1QAN/5L87ZrgJy9J35tKGd0X72Rxva21/RfrZHDNob7Wd/tKG90X72x1wGmXCFHgAAAAAAAGAjJPQAAAAAAAAAGyGhBwAAAAAAANgICT0AAAAAAADARkjoAQAAAAAAADZCQg8AAAAAAACwERJ6AAAAAAAAgI2Q0AMAAAAAAABshIQeAAAAAAAAYCMk9AAAAAAAAAAbIaEHAAAAAAAA2AgJPQAAAAAAAMBGSOgBAAAAAAAANkJCDwAAAAAAALAREnoAAAAAAACAjZDQAwAAAAAAAGyEhB4AAAAAAABgIyT0AAAAAAAAABshoQcAAAAAAADYCAk9AAAAAAAAwEZI6AEAAAAAAAA2QkIPAAAAAAAAsBESegAAAAAAAICNkNADAAAAAAAAbISEHgAAAAAAAGAjJPQAAAAAAAAAGyGhBwAAAAAAANgICT0AAAAAAADARkjoAQAAAAAAADZCQg8AAAAAAACwERJ6AAAAAAAAgI2Q0AMAAAAAAABshIQeAAAAAAAAYCMk9AAAAAAAAAAbIaEHAAAAAAAA2AgJPQAAAAAAAMBGSOgBAAAAAAAANkJCDwAAAAAAALAREnoAAAAAAACAjZDQAwAAAAAAAGyEhB4AAAAAAABgIyT0AAAAAAAAABshoQcAAAAAAADYCAk9AAAAAAAAwEZI6AEAAAAAAAA2QkIPAAAAAAAAsBESegAAAAAAAICNkNADAAAAAAAAbISEHgAAAAAAAGAjJPQAAAAAAAAAGyGhBwAAAAAAANgICT0AAAAAAADARkjoAQAAAAAAADZCQg8AAAAAAACwERJ6AAAAAAAAgI2Q0AMAAAAAAABshIQeAAAAAAAAYCMk9AAAAAAAAAAbIaEHAAAAAAAA2AgJPQAAAAAAAMBGSOgBAAAAAAAANkJCDwAAAAAAALAREnoAAAAAAACAjZDQAwAAAAAAAGyEhB4AAAAAAABgIyT0AAAAAAAAABshoQcAAAAAAADYCAk9AAAAAAAAwEZI6AEAAAAAAAA2QkIPAAAAAAAAsBESegAAAAAAAICNkNADAAAAAAAAbISEHgAAAAAAAGAjJPQAAAAAAAAAGyGhBwAAAAAAANgICT0AAAAAAADARkjoAQAAAAAAADZCQg8AAAAAAACwERJ6AAAAAAAAgI2Q0AMAAAAAAABshIQeAAAAAAAAYCMk9AAAAAAAAAAbIaEHAAAAAAAA2AgJPQAAAAAAAMBGSOgBAAAAAAAANkJCDwAAAAAAALAREnoAAAAAAACAjZDQAwAAAAAAAGyEhB4AAAAAAABgIyT0AAAAAAAAABshoQcAAAAAAADYCAk9AAAAAAAAwEZI6AEAAAAAAAA2QkIPAAAAAAAAsBESegAAAAAAAICNkNADAAAAAAAAbISEHgAAAAAAAGAjJPQAAAAAAAAAGyGhBwAAAAAAANgICT0AAAAAAADARkjoAQAAAAAAADZCQg8AAAAAAACwERJ6AAAAAAAAgI2Q0AMAAAAAAABshIQeAAAAAAAAYCMk9AAAAAAAAAAbIaEHAAAAAAAA2AgJPQAAAAAAAMBGSOgBAAAAAAAANkJCDwAAAAAAALAREnoAAAAAAACAjZDQAwAAAAAAAGzkLwzDMGa7EgAAAAAAAACywxV6AAAAAAAAgI2Q0AMAAAAAAABshIQeAAAAAAAAYCMk9AAAAAAAAAAbIaEHAAAAAAAA2AgJPQAAAAAAAMBGSOgBAAAAAAAANkJCDwAAAAAAALCRAiT0Iuqs3iN/TNJoSC3r2xTKfyEooHhvk9adTrZa7PIe7fk4Nss1gjnEoN0Rg3ZHDNodMWh3xKDdEYN2RwzaHTFod8Tgt8Vf5n+TcQ0POuVySIpFFLmXmPkj9yIKXuuW77JPPZ73dL3Bk/69N1tUtrMz4+a8h6+odVNJ6j/eDarjvWM61xtRXE65123Tvr11Kn9i5mpmJyZfwwY1Xc/0nhp19Dcqw7ecJHRmnepOxyV5dejjVlXlra6pJeLDcs6bJ0kaGgxIi2f4QDws/wftar/co8g9ybm4QlU/2aEd60vlfKywdc1G6ESZ6s6m/ptzV4d6d6ZpiZGI/GdOTfleu1W/wS1H4aqbBxZicILYx3v04uGAEqsP6cqJKqWMpLs+7Xm+SYGUW6hQ85VjqkwTgjkZjSn4wVEd+zDZJpLkeKJUbrdXje/Wq9w5tZ4m4j3XviWPTMVgwdsiJv/bG3TwqmS275qk4H1valkdz3mXbQzmMF6MJhS91a0ef0Dd1/oUvpuQFrhV8VqjGrd45Zqfj+9hoaxbHVpX26a4coiX0YSi4R71Xe7RxasPVPOrwo97U5keB7MdL/Kxf/Il5te+DQfVI0nbO9Tf4FHe4n3W5TYOZl9MnuY/KdtiTFHGprnX7jPHoA3HJjPnOxlkc14Q6+/U8dPn1HMzpsT8EnnWbtPuPTUqL1qXk4cYzBQXE9/W36Gj755Tz2Bcjic8qqhr1P6XPXk4B5mluJitOfYUpsdBU/J0vmzivMDy+aCFsiQpdqNTx38xJQb/vqbg895HrMdg/HOfTh1r06WbMSU/5ZR7qUvu197TseddqT9k9hztG15WURn5NtxtNKw8bgwYhmFELhhb/uGSMZzuvZELxt6fHjCOXuw2bv/pgTHkazBWtg5k3v4X54zqf/zEuJ/mz7c7XjQafGlKHLpkNPyg2jjiu23c/zr50oOv7hh9HUeM9k8fzPjVsnPf+OSfqo32cLo/f2IcGN8/pgwYx1c2GJe+yq12WZV06pmxffjA6PvnlcbxTzO8eajb2PtctXHk4oAxNLYLHwwNGOf2rzWqWweMfO3VXAy0rkx/TKTz5wHj+OsNxoV/HzYejB0rxoNh4/aHDcaWOfK90jITg1P9n0+MA88dNfr+53FjZabPfXXpURlFc9/45B+fMaqP9T081jIyG++59C15ZioGi9UWuZRTlL43hWyP53zLOgatjhf3jb7mtcaW5gvGwJ/uP+qj/jxk/OFUrfHMj48bA3/OxxexXpalfte4b/T96y5j7z+dNC79/o4x/OAPRRv3pjIVgxbGC2v7pzCGU829ZqWPz6NcxsFsFWD+k7Itijk2zaF2zzoG7TA2WTnfmVH684IhX4Ox5VifMTShb37wpz7j6OsNxqWhHIvNVh5jMGVcjBny7TV2dQw8bD/DeGDcubjXqO24bbG0FIodF3MkDk2Ng6bl43zZ3HlBbuOumbIeGAOnthhrd5w0+iJjPffX9407/uPGludsEIPhdqP6Bw3GhX9PN+qkYvIc7ZteVpHl/5bb0QfSUpecknQvqvBfzkv/3sWbdex0s/ZVV6r0SYcyvPOR79Xo4jsVSp0MjWig1ymvJ9XPFnH1nGmR83CHDm169Mup4wm3vLX7tay/S+HRbCowE6cqDl9U3VOp/5q41S9/dbmW5KOoQkkktGihU1Jcw1GHHGl/4Yqr5+RRPWho1aFqT/IXAEkOl0c175xXzRe71HKjQL+KF1jkoyZF/7ZZm5eWPPr+jhKVvtqsbdEmdf1xVquXmZkYnCShwOkm6e3d8j5ewPpZFQvId2Wz9r3lfXispWch3i33LQWQdQzaQbH63qlm8XjOOgatjhdOeQ/06vyBzfI86Xx0fMx3qXzXabWu7lHLx9E8fJFZKOuNUzp2uF5Vq9wqcWTbdxWAiRi09XjxTWV5HMxWEec/c2lsKqaCj4NFHJusnO9YFe9R+9nlOvzW5KunHU96te/gcnWe6VG8kOWPK3gMSrrr09GrXjXXTrwazyF3dbN2fNWirsH8F/mtUtAYzMP5sqnzghyZKevzTjVdLVfriXp5F4/13I855d7QqA/edav9QJfyNWvKyGIMhnrOaOGb+7V5qYlLzyy2xTe1rGLLf0IvGlFgwTw9Lik+PCwtdhXpFidJg0H57j2n5SkvCY4odHmjNj6bqhEd+u4TQfn6C518Sih4rUuVZZ45fMtmTJEvJMd8h6RhxQbLteg76d4akP9/VWnHCykuUX3MpTXry9V143YhK1sgMYX6F8q7LNWx4pRn1UIF/30OryNhMQYTt86o7e5+vbl+Llw7nMLoA0nSvKwmFHmO94x9S76ZiEFbmJ2+d1aP57yMg1bHC4fKn61QKDpsukTzillWMZmJQZuPF99UhZ6LzpX5T1HHpmIqxjg4F84LCuCPIflWL1NpqrlS6TJ5L4cUKUY9inA+GP5duxa9tjHFdh3yri9Vy8WgbNiCc8RszkWznP+YOi/IkYmyQtfOybV9mzwplj5xlFWo4lZAwbt5rl8qVmMwkZDjMZMJeKtt8U0tq8jyv4be13p4wMRG4nI5i/cLe7Tfr/jL+1Vq8fOXPr2tfatS3D8/GlPw/HF1XA4oOBiX5FDJU2u08W93qOpBm/bE6nW5NotSEwMKfFypijfSn2BOut9eTrlXbdQru3Zo8zKLX8q0B1KiXO4nkv++H3Vq8X9J89aSSh27Vpl+S6MJOdL0xIk/+tTyz1PuYV/lVdX2N1WzKk13MxpXpL9H3b/zq/d6UJF7yXvY1/yoUftry1WSt2BzyOkMqn8woenp+IQi4aCcZam/WCIaVs91n3p+/Yn6Pn/UhjV7dqvqqSIlFqzE4GhYnf/Ur6qf1xc0AW9+/0xcvyQpUDZlLaEF9eq4Wmd6XZO08Z5Crn2LOSZiMEfxz/1q/8U5dd8IKzYiaYFb5aurVPf3pQpW+7Tkd82qSNEsyc+1y9cbUVwOlayo0LafZIjdGaRsi1zivUjHc1r5GAezGC/SCd/skce1Oe3frba7lbLGx89TH/YoNL723qYd2lFbqdI5+tuBuRi0Pl5IsrZ/rMxJpqz1loylejVu8c54tZDZeLc0vuebyRg0PTblMP/JpS2mymZsmiv9vDnWxsHijE2p11NaU7mtIP2a6fOC+Y/LdTOiiMrlnvq3LyMKuh7XxvxWMTWz46DpuIjp9qdulb6QJtD+2q3y/3VLkb3l0+Ijlz7Klv2hJSZjMJ9xkXH+U7jzgnyV5dnZq9Z0myxmgshMDE5Y3zdpg8qOTH5LxTtXdGzDxGPWYlt8U8uaTfm5c3fY6N6/0li5MsN/z7XPuBZApjUSZjZkXPi7F9Pfi2/cN7r3P2Mc+B8p7pv+esi49OYzqddYGvrEOPL6FuOI77YxPHEtiq/uGH2/3GtUr1yZdZ0f/P6o8UzadVAeGAOnao1dp/qMO/9nwqtXbil7AAAVfklEQVR/+oNx7mdbjNqOduNIIdcSCrUbazO138qVxl6/iXUH/vwH4/iLqddGePDpSaP2744YFz4dMu6P34/+9QPj/p8GjAvNW9KvOXRqrfHDN4+Pra00Xs6Q0fcvW4y1b3anXRdgoHWlseuXfUbfLw8YtRufMVauXGk8s7HWOPDLPxjDX6f5ULjdqP7xUaNvyv5+8Olxo/rH7cbtVJ8b7jYanqs1DvwyuUbK+Pca/vcLxt7nqo2ToULefJ9bDN75sNaonrjeyKfZrKF31Oj+9JJx/GfVY8fOWqP6Z8eN7i/SfM9c94+pNUUsxntKM/UteWI1Bq20hfHAuN1Ra/ywvt34w8R10R7cN4Y+vWQc3/GMsXJqfzO2/y/9bq/xwx0njb7I2HphXz8whiN9Rnt9unWjrLWF1Xg3DAvHc17kZxwcl3m8SPehYeP2xb3G2rRr6Flod4tlDbSuNBrOXzJOvr4lucbY+Hv+PGQMXDyS5ToyxVs71jAM6zFoYbywvH+szEmGuo29Y2PupDX+/MeN2tePGO3/sivtGnpm493q+J4fFmMw32N3hvmPpbZIa6axqZj9fJ5YicFijk1fDxnd+6uNXb/oM+58NWGLfx427vzPdmPXxuzWx8rufMfqecF945N/XGs0fHh7wrpy499pbervmzcWY9BSXAwYJ3+QYXz4+g/G8RRzRkt9VLH7Q0vzujyxEoN5iotxWc9/TK41aOl80GJZ6Qz9usH83M6U3OeiltYatLh/vqllFVveH4oxcZAyu+NySuh9dcloeDFNomXc0CWj4bktxnH/neQg9/X9ZEfz3Fpj76njxq5pA/cd48LfVRvHMyyMO3Sx1ngxy4VXB1qfMfb6U4fw/f9xwNjyi3TbeWAMtFZnf6KVkwknUFYP4j/fMS68udZo8KXovR8MGCdfP2r0pV2w/YEx0LrF3ITj69tG+4vp983AqWeMtfXHjUsTB9Txk6Y3LxlDaY6ZB19cMPb+uNrYsq3aWPvjXcaB/bXGlv0XjDsWFpu/79+bhwWQs2M6Br/qNhpeP2kMTDzMZ0qADHcbDT/YYhz45YTBe2xic3LHlowxk0pW+8fs8Wg23jOVO1PfklcmY9BCWzwIHDXWZjj2jQd/MI7+4IDxycQw/OqS0bBypfFMus9lOlnIV1sYxozxbul4zrNcxsFxmcaLae/9xdqHE7Uf7r9g3E7zMUvtbrGsgdaVxsqV6cfPjD+OPNrKLD0Uw/w4aHa8sLR/rMxJvr5ttL9+wOhOdwgOXTIafpAiCWgl3gsxvluUjxg0DAtjd6b5j9W2SGeGsano/XxemYjBIo5Nw79rMHZ9eCd9tYcuGQ2vzzxfyOZ8J6fzgq+HjT/8S63xw9e3GFs2/tDY8uYBo+H1WuP474v3IJ6sY9ByXMw0PgxMT+hZ7aOK3R/meY5tTfYxmK+4eFhytvMfswk9i+eDVspKZThw1KjO60PLZijP4jj4TU2yfZMTevlfQ0+Sd/GiQmw2o9jvexRcX5Z6zYhxriq1/qpRj1/dp02rylS2apP2/fa+qtou69iP3NPv07/lU8t3dmjHivS3y7iqO7K73XY0pJ6PyuV9OtXlw2FdPJHQtup023HI81qNvDOXkifusUusLRgJq6OhToG159W6afraMol+vzr/plLeFOsKJDnkeW2z4pd7lPWqQ48tVEmG9WM8u66r92Sjqla45BxvyvkueaoP6fDSTrVfS7E88GhUPb3z1Hjhos6fvajej06p+d0OffDaf+jiv5lfytT5nTSPwi6Q7GMwrp7Wo1r09zvlMbNQV0mlWq+dV/N2r9xPjH3wMYdKFntV//NtijZ3mVqjpSD7x2y8p5FV35J3JmLQdFvE1P1hn7btrJIr3XdylGvftVS3YXnU+Gaazz3mUlXDbkXOdk9v+zy1RbKcTPFu8XgugJzGwYzjxXSenb3q7+/X9d90aIfTr4P/f6fCI1PflUu7my1rbHOv7lN9mvHTsaJejWVt8s3ZByeZiEGL44Xp/WNhThLvPadLFdtUme7OLleVdlSn2565eC/I+J6DfMxFTY1NM8x/cmuL6TKPTbPQz+edmbloMcamiD75UKpcN+1G1knb2/E359R9K9t6p5PbeUHiVrfCz7bqyq/O6/zHV3T+/Wa1nmvWkl6fQmn660LIJgbzHReZ5NZHFbE/zPMc27psYjDPcWFy/mOGpfPBPIlebdKu9x06dLYx5dp6hTIbORkUX/7X0JsVMfVdDWpzXdo71h95olx1711U3dTXbw0pqMkHfexPEbmfrkrzZDGTbvWoa0WFfpuqY7x7WwNRl8oWZPj8E+7pa2HMNfGg2n56UIM159X6fOpJcHx4SImzdSo7O9PGajQkTV7/amx9jXPXggoPjnW6C9wqdTmle05lWMUpLffScvn6Izq0bvJd8JHzexRael6VUwZux4oaef1b1Vl6UTXfm7692I1OHT/breCtsbVq5FDJU259d15CerrCQg0LK3H9lJp0SJdX5zH7saBUZfO7FbpbM20iUPT9YyLeUzPRt8xFKdtiSJHra1T+cysb9GjJkxn+vHiJyj/rUiS+We6pHafZtrAQ7wU5nmdDpvEiA8eTHm0+0KE1v9mj6ndcujLpyZi5tLvZspLKS7+bIVnr0JKlXh0NR7RvdXFWpywUq+OF2f1jZU4S+cwv9+I3M75n0eJyKeXTIM3Fe07j+yzLeWzKYv6TW1tMq/EMY9Ms9fOzphhjU1zRzwLqfL5MTTPUxrs4Jq3I4QjP5bwg3qOjrQ7VfDDliz7mUuVr/1V1P+9R6+F0T00uvlziwpEpMZKIT3sgRm591BzpDzPMsWdHnuPC4vwnV+nOB/Mhenmfaj9crPfO1hc1mYdvj/wk9KI+7d7UpODDFyYuODj27/XNuvJuZWEmcPeCCtzcrJocHhwR+SyghU8fLtgEM9zfo/L1H8ypCewjCQVPbNDus49+meicsPhjciFIp+o/6FVdun0c7VFTwynNe+tXOrY687d0vXE+u6saJ23fpz2vtSixvVnNbc2PfrGSlLgXUldDu7ntjXGkXLU6ouBVl0orU/3NoSVLXWrrj6jmexOnUgmFTmzVrt971LjvPe1fOuHXn0RcsWst2vCZpSpmx2IMxoeHFL/SpXVXUm92Q1lL5nZPaZ7mTRuwZnn/TJF1vOehb8lOHmIwpVRtUWiPa56Jld1TtoXFeC/M8ZylPI6DuY4Xrk012vyOT8G3K7J+uIVVuZblnD9Xkq9WY9DKeJG9ubN/0pkc75bG93yxFIN5GJtMzH/ypmhjUzrm+vnsFGocHJeHsUmVOtab/UODZkPiVr98T1fqUKo/Ll4iz2W/Qm9XyFuIrqWo54OLtGhFUENfSUqV/BkeVsT1+LQHahS2jypGf1jIeZ3VGMxfXMzW+XLq88FcJRT+YJd23apUx5nNchdjPj7bORnMivwk9FxVOtVfJUkKnShT19JeNa9PyNewQZG6fjWuyEspacX7+9T3YpWard4SlwjJd36eak5O7nSd31mkyG/Cir/qzvGXrLAClxfKezJN6DyxRMtdAUXvSZ50v8bdjSgiFegqPYfKG3rV3yDprk97dsZUf7lOpTdbVNbh1pUTVRmDPvHHLu39qV/LT5xX3dLMHWLJkuVSc1CR7aVyZ91ecfWcbNLC5us69Oz07TsWLJIz06+YGUT+GJTLmep5Xwu18L+m/oxj3jzpP6e8+HmnDvZX6fy5munfy+FUycJCn1Vbi8GSTa3q35TiD1m2fUqJiML9TpVNfBrWbO+fSfVLHe+p5Ny3ZC23GEwrVVtooVzL+hT+Yp+8S81uMKTbX0qedL9SD95WcNlibc52XpSyLazHe0GO52zlbRycYbzIWlyJSZcn5NLuZstKCobvKKGSNFehJXT7s6CWr5srt4PkEoMmx4sxZvePlTmJe2mlIoPDynT9x9BgUNKOFH8xF+/Wxvc8shKDOY5NZuY/ubXFZDOPTXOon89aLjFYjLHJLc8GvwKfHlZFirEpr3I8L3CnPW7n6fFCnsVbiEHrcVGiJU8vlC8clZaluMX9VkADP3hl0v7JrY+aI/1hynldvliJwXzGRb7mP+alPx+0aDSmwPu71PKfu3X+vYr0Sx/k2yznZDA78ryGXkzRQWnhQqekYcUGvXIXfOmwuIK9fr3kXW5uHaZxozEFWo8qsrNZm6d00o6yKu38ol3tNzOs8fOlT/vWH1Mg0zJAnwd0aUGlytNeql2qVxocOnc2NO3y8KSEgp3tCmT6Hvny1ZCCi0u0UFJ8eFj6vjvjCXDseotq/6FfFR90zDiZlSQ99Yoan2xXy+/MrEOXUDzu0qK/Sr39+C2ffDdT1k7+t1drz2/SlDUSTE7Y1k1N7Li1/NmIwmlue4l+Oaznlk2ZQo3cV/RJlxam6rBHo/JfLkrrqSgxeKtD66pbFEyz1ET0d126VL1RaybOJ+fK/skQ79Pl2LdYZSYGrbSFXNq41aNzZ3yKjqbZ7mhcwdNbVffR1NgJqeV4ms+NxhX89UW5t25UVodc2rawGu9zRY4xOON4MbPo7zrVtbpC5ZMOnFza3WxZSYkLx9SWbvz88pK6+neqqmwOXoFmahy0MF6MMbt/rMxJnOu26aWeNvnSNWnUp/az6bZnMt4tje+FYCIGcxibzM5/cmuLibIZm+ZIP2+VybloccYmpyr+tl6hE21FWIfO+nmBY6lH7lBYKacF9yK6/bSnCGvMZh+DucRF6cuNcl3tU2Rqu49G1P1hRDuryifHSE59VJH6Q0vzugLIOgbzGBd5mP+kZvV80KKRiLoObFGbc586DhQxmTfJbORkMFvynNC7r/vD4wfMA92PLtJCi1dOZS0eVM+VzfJmcVIQG4woPqEjjg8G1LF3r3o876VcwFiPlaruxA5F/3GX2m5ElRj/7GhC8S/D8p/ZrXW1fnmO78546Xo4cEnOF8ozXl3nXH9Y+x0t2nM6oMi9R68nvgyq440Xder/eUlVM37D3CXi/6HEWKedGImr9DvpR4z4tSZt+Vep/twxVaXofBM3jmnd6dCUV52qOHBayy9v1dZ3uhT6cvIgnbgXVeijJr2ypXPCgq8lWlPp1rljbQpGx94/mlD8y5C63tmqTf98W86Ui+SXqHLve3JfnFLWaELRm11q2r4nOWFL8dnSLY26f7JJvs9ij9p9JKbw5Sa1jDSqZuov3ksrVBc+pZbL4UfH2EhMkWsd2r1hq3pGitWLFiEGl9Wo47Wo9r28Wx3XIoqNN+G9iAKn61R93q3TDd7Jk6hZ2D+m430qE31LPpmJQUttoWR/0/pUl/a+41M4NiEGR2KK3OhS07ZNaoltU/PLU/dTjfavD6j2p20KDI7FxmhCscGAOhqq1TL/kA6vn15fc21hNd7nitxiMJvxQoNdqqveo5bLIUXvPWq/RGys3c8uVPPb039Jt9TuFsuSJO9bNXIcq1XTRyFFxyf6I8k+futP+7XxRF2RHzaTHVMxKAvjxRjT+8fKnOSxUtX9fKMCB5rUdXPCZxLJ+m39WUjLt5Sn+WZm493K+F4IJmLQ4thkaf6TU1tMLDy7sanY/Xw+mY3B4oxNkp6qU+uuuJo2TRlzk5VWbDCgtp3r1JSHxfUtnxcsqFTj6h7tOx1UND5xDA2q7UCPvA2VRVg/z0QM5hIXCyq0vzqkg+8HFHvYH8YVOntM/S+3qu6pqR/IpY8qUn9ocV6Xb6ZiME9xkdX8xxLr54PmRdS5c5f6y07rg13lck6b40TVVbtH/oI/GWoWcjKYNX9hGIaRv82F1FLWJU9vsyr+06c9z0e0o79RaZeXvNWhdbVtqX9FGlPxzhUd25Dhd7lbbVrnL9eVveUzdG4x9by7V00fhRSXQyVPrdFzP6rSKxu8My/qO744u79P4bsJaezzG1+r0bYXPCrJeEISk/+tvbr/ZkcWVwSNLcz8i3PquRlTQk65V23UK7t2aPOyIbWU1alTKui977HLe1Qbq9fl2lKFTpSpffEVtW5KXVLs8h5tODLDlVXbO9TfkOIIGI0rfLVd7b/sVt/nMSUkOZ4o1fIyrypf2KiKMveUTjChyJU2nfqFTz2DcUlOuVd5VfXqDlV5H1fPmxvUdF3SqkO6fLJq8q+w08qauF8z7MWRiPxnTqn9co8i9yTn4gpV/WS36jekeSpnLKjO1lM6928hxUaS32dN5WbVvFYlT7RFZTuTa0/UnL6ixoIliUzG4NRPn1mnutMTIzLDejV3g+r81w75rgcVuTf2fX9Ur8YtXrlSrRNhaf+E1LG+Tm33UmxvXMp4yCHex2Xdt+SXmRh8yGxbjJd1o1PHz/oUuBFJ9sML3CpfXaWauip5F4/vqJj8b2/QwauSVKOO/ka5P/er/Rft8vVGkvt3RYW2/eRN1axKVU8rbZFDvE9g6njOm1xi0MR4kYgq5L+kriu9D9vP8YRHFa/tUH11PtrdYlkTxnXv4StqfUEKnj+uUx/2KHQ3IS1wq2LTDu2orVTptKImHmtpLKhXx9W6rPs0KyzFYLbjRU77Z4yVOcnYZ8brN7GPmHd1fCx3qv6Dj+Q6n0u8y8L4nm8mY9DC2JTT/CfrtkjTV5kcm4rTz+dXdjE4G2PTmCljruSUe2m5yjdVqGp1hUpdU1omh/Mdq+cFsf5OHT899rn5JfKs3abde2pSXk2dfxbGQctxkZwvtLR2KXA3IccTHr2065AaN6WZq0sm+qg8xIXV/tDivC5f8jEXnTEuJpeY5fzH6nmBLJwPWikr9Cgu0/Lq0Metqirogz/MxWDsyj5tONCTYXupYs9aW3xTy5pN+U3oxfza8/Id7bhWL8+XXao7/rjee3/ufFnMLHR6tdr/+rdqfd6p4PsbFPx/e1U/a4suwzRi0PaIQZsjBm2PGLQ5YtD2iEGbIwZtjxi0OWLwWyXPV+gBAAAAAAAAKKQ8r6EHAAAAAAAAoJBI6AEAAAAAAAA2QkIPAAAAAAAAsBESegAAAAAAAICNkNADAAAAAAAAbISEHgAAAAAAAGAjJPQAAAAAAAAAGyGhBwAAAAAAANgICT0AAAAAAADARkjoAQAAAAAAADZCQg8AAAAAAACwERJ6AAAAAAAAgI2Q0AMAAAAAAABshIQeAAAAAAAAYCMk9AAAAAAAAAAbIaEHAAAAAAAA2AgJPQAAAAAAAMBGSOgBAAAAAAAANkJCDwAAAAAAALAREnoAAAAAAACAjZDQAwAAAAAAAGyEhB4AAAAAAABgIyT0AAAAAAAAABshoQcAAAAAAADYCAk9AAAAAAAAwEZI6AEAAAAAAAA2QkIPAAAAAAAAsBESegAAAAAAAICNkNADAAAAAAAAbOT/AqgEcrk/lnJ0AAAAAElFTkSuQmCC;fillColor=#106d57;" parent="1" vertex="1">
          <mxGeometry x="112.93" y="800" width="640.54" height="245" as="geometry" />
        </mxCell>
        <mxCell id="PQ9YIbCeY8_nuyNwMEHQ-72" style="edgeStyle=orthogonalEdgeStyle;rounded=0;orthogonalLoop=1;jettySize=auto;html=1;exitX=1;exitY=0.5;exitDx=0;exitDy=0;entryX=0;entryY=0.5;entryDx=0;entryDy=0;" parent="1" source="PQ9YIbCeY8_nuyNwMEHQ-95" target="PQ9YIbCeY8_nuyNwMEHQ-75" edge="1">
          <mxGeometry relative="1" as="geometry" />
        </mxCell>
        <mxCell id="PQ9YIbCeY8_nuyNwMEHQ-73" style="edgeStyle=orthogonalEdgeStyle;rounded=0;orthogonalLoop=1;jettySize=auto;html=1;exitX=1;exitY=0.5;exitDx=0;exitDy=0;entryX=0;entryY=0.5;entryDx=0;entryDy=0;" parent="1" source="PQ9YIbCeY8_nuyNwMEHQ-75" target="PQ9YIbCeY8_nuyNwMEHQ-78" edge="1">
          <mxGeometry relative="1" as="geometry" />
        </mxCell>
        <mxCell id="PQ9YIbCeY8_nuyNwMEHQ-74" style="edgeStyle=orthogonalEdgeStyle;rounded=0;orthogonalLoop=1;jettySize=auto;html=1;exitX=1;exitY=0.5;exitDx=0;exitDy=0;" parent="1" source="PQ9YIbCeY8_nuyNwMEHQ-75" edge="1">
          <mxGeometry relative="1" as="geometry">
            <mxPoint x="473.2403448275863" y="1110.344827586207" as="targetPoint" />
          </mxGeometry>
        </mxCell>
        <mxCell id="PQ9YIbCeY8_nuyNwMEHQ-75" value="&lt;font color=&quot;#ffffff&quot; style=&quot;font-size: 16px;&quot;&gt;Generative model&lt;/font&gt;" style="rounded=1;whiteSpace=wrap;html=1;fillColor=#179c7d;strokeColor=none;" parent="1" vertex="1">
          <mxGeometry x="342.93" y="1090" width="150" height="40" as="geometry" />
        </mxCell>
        <mxCell id="PQ9YIbCeY8_nuyNwMEHQ-76" style="edgeStyle=orthogonalEdgeStyle;rounded=0;orthogonalLoop=1;jettySize=auto;html=1;exitX=0.5;exitY=0;exitDx=0;exitDy=0;entryX=0.5;entryY=1;entryDx=0;entryDy=0;" parent="1" source="PQ9YIbCeY8_nuyNwMEHQ-77" target="PQ9YIbCeY8_nuyNwMEHQ-75" edge="1">
          <mxGeometry relative="1" as="geometry" />
        </mxCell>
        <mxCell id="PQ9YIbCeY8_nuyNwMEHQ-77" value="&lt;span style=&quot;font-size: 16px;&quot;&gt;Random noise&lt;/span&gt;" style="rounded=1;whiteSpace=wrap;html=1;fillColor=#e7f5f2;fontColor=#333333;strokeColor=#333333;" parent="1" vertex="1">
          <mxGeometry x="342.93" y="1150" width="150" height="24" as="geometry" />
        </mxCell>
        <mxCell id="PQ9YIbCeY8_nuyNwMEHQ-78" value="&lt;font color=&quot;#ffffff&quot; style=&quot;font-size: 16px;&quot;&gt;Synthetic sample&lt;/font&gt;" style="rounded=1;whiteSpace=wrap;html=1;fillColor=#5cb9a4;strokeColor=none;" parent="1" vertex="1">
          <mxGeometry x="572.93" y="1090" width="150" height="40" as="geometry" />
        </mxCell>
        <mxCell id="PQ9YIbCeY8_nuyNwMEHQ-79" value="" style="shape=table;startSize=0;container=1;collapsible=0;childLayout=tableLayout;fontSize=16;strokeColor=#333333;" parent="1" vertex="1">
          <mxGeometry x="112.93" y="1140" width="150" height="100" as="geometry" />
        </mxCell>
        <mxCell id="PQ9YIbCeY8_nuyNwMEHQ-80" value="" style="shape=tableRow;horizontal=0;startSize=0;swimlaneHead=0;swimlaneBody=0;strokeColor=inherit;top=0;left=0;bottom=0;right=0;collapsible=0;dropTarget=0;fillColor=none;points=[[0,0.5],[1,0.5]];portConstraint=eastwest;fontSize=16;" parent="PQ9YIbCeY8_nuyNwMEHQ-79" vertex="1">
          <mxGeometry width="150" height="33" as="geometry" />
        </mxCell>
        <mxCell id="PQ9YIbCeY8_nuyNwMEHQ-81" value="" style="shape=partialRectangle;html=1;whiteSpace=wrap;connectable=0;strokeColor=inherit;overflow=hidden;fillColor=none;top=0;left=0;bottom=0;right=0;pointerEvents=1;fontSize=16;" parent="PQ9YIbCeY8_nuyNwMEHQ-80" vertex="1">
          <mxGeometry width="49" height="33" as="geometry">
            <mxRectangle width="49" height="33" as="alternateBounds" />
          </mxGeometry>
        </mxCell>
        <mxCell id="PQ9YIbCeY8_nuyNwMEHQ-82" value="" style="shape=partialRectangle;html=1;whiteSpace=wrap;connectable=0;strokeColor=inherit;overflow=hidden;fillColor=none;top=0;left=0;bottom=0;right=0;pointerEvents=1;fontSize=16;" parent="PQ9YIbCeY8_nuyNwMEHQ-80" vertex="1">
          <mxGeometry x="49" width="52" height="33" as="geometry">
            <mxRectangle width="52" height="33" as="alternateBounds" />
          </mxGeometry>
        </mxCell>
        <mxCell id="PQ9YIbCeY8_nuyNwMEHQ-83" value="" style="shape=partialRectangle;html=1;whiteSpace=wrap;connectable=0;strokeColor=inherit;overflow=hidden;fillColor=none;top=0;left=0;bottom=0;right=0;pointerEvents=1;fontSize=16;" parent="PQ9YIbCeY8_nuyNwMEHQ-80" vertex="1">
          <mxGeometry x="101" width="49" height="33" as="geometry">
            <mxRectangle width="49" height="33" as="alternateBounds" />
          </mxGeometry>
        </mxCell>
        <mxCell id="PQ9YIbCeY8_nuyNwMEHQ-84" value="" style="shape=tableRow;horizontal=0;startSize=0;swimlaneHead=0;swimlaneBody=0;strokeColor=inherit;top=0;left=0;bottom=0;right=0;collapsible=0;dropTarget=0;fillColor=none;points=[[0,0.5],[1,0.5]];portConstraint=eastwest;fontSize=16;" parent="PQ9YIbCeY8_nuyNwMEHQ-79" vertex="1">
          <mxGeometry y="33" width="150" height="34" as="geometry" />
        </mxCell>
        <mxCell id="PQ9YIbCeY8_nuyNwMEHQ-85" value="" style="shape=partialRectangle;html=1;whiteSpace=wrap;connectable=0;strokeColor=inherit;overflow=hidden;fillColor=none;top=0;left=0;bottom=0;right=0;pointerEvents=1;fontSize=16;" parent="PQ9YIbCeY8_nuyNwMEHQ-84" vertex="1">
          <mxGeometry width="49" height="34" as="geometry">
            <mxRectangle width="49" height="34" as="alternateBounds" />
          </mxGeometry>
        </mxCell>
        <mxCell id="PQ9YIbCeY8_nuyNwMEHQ-86" value="" style="shape=partialRectangle;html=1;whiteSpace=wrap;connectable=0;strokeColor=inherit;overflow=hidden;fillColor=none;top=0;left=0;bottom=0;right=0;pointerEvents=1;fontSize=16;" parent="PQ9YIbCeY8_nuyNwMEHQ-84" vertex="1">
          <mxGeometry x="49" width="52" height="34" as="geometry">
            <mxRectangle width="52" height="34" as="alternateBounds" />
          </mxGeometry>
        </mxCell>
        <mxCell id="PQ9YIbCeY8_nuyNwMEHQ-87" value="" style="shape=partialRectangle;html=1;whiteSpace=wrap;connectable=0;strokeColor=inherit;overflow=hidden;fillColor=none;top=0;left=0;bottom=0;right=0;pointerEvents=1;fontSize=16;" parent="PQ9YIbCeY8_nuyNwMEHQ-84" vertex="1">
          <mxGeometry x="101" width="49" height="34" as="geometry">
            <mxRectangle width="49" height="34" as="alternateBounds" />
          </mxGeometry>
        </mxCell>
        <mxCell id="PQ9YIbCeY8_nuyNwMEHQ-88" value="" style="shape=tableRow;horizontal=0;startSize=0;swimlaneHead=0;swimlaneBody=0;strokeColor=inherit;top=0;left=0;bottom=0;right=0;collapsible=0;dropTarget=0;fillColor=none;points=[[0,0.5],[1,0.5]];portConstraint=eastwest;fontSize=16;" parent="PQ9YIbCeY8_nuyNwMEHQ-79" vertex="1">
          <mxGeometry y="67" width="150" height="33" as="geometry" />
        </mxCell>
        <mxCell id="PQ9YIbCeY8_nuyNwMEHQ-89" value="" style="shape=partialRectangle;html=1;whiteSpace=wrap;connectable=0;strokeColor=inherit;overflow=hidden;fillColor=none;top=0;left=0;bottom=0;right=0;pointerEvents=1;fontSize=16;" parent="PQ9YIbCeY8_nuyNwMEHQ-88" vertex="1">
          <mxGeometry width="49" height="33" as="geometry">
            <mxRectangle width="49" height="33" as="alternateBounds" />
          </mxGeometry>
        </mxCell>
        <mxCell id="PQ9YIbCeY8_nuyNwMEHQ-90" value="" style="shape=partialRectangle;html=1;whiteSpace=wrap;connectable=0;strokeColor=inherit;overflow=hidden;fillColor=none;top=0;left=0;bottom=0;right=0;pointerEvents=1;fontSize=16;" parent="PQ9YIbCeY8_nuyNwMEHQ-88" vertex="1">
          <mxGeometry x="49" width="52" height="33" as="geometry">
            <mxRectangle width="52" height="33" as="alternateBounds" />
          </mxGeometry>
        </mxCell>
        <mxCell id="PQ9YIbCeY8_nuyNwMEHQ-91" value="" style="shape=partialRectangle;html=1;whiteSpace=wrap;connectable=0;strokeColor=inherit;overflow=hidden;fillColor=none;top=0;left=0;bottom=0;right=0;pointerEvents=1;fontSize=16;" parent="PQ9YIbCeY8_nuyNwMEHQ-88" vertex="1">
          <mxGeometry x="101" width="49" height="33" as="geometry">
            <mxRectangle width="49" height="33" as="alternateBounds" />
          </mxGeometry>
        </mxCell>
        <mxCell id="PQ9YIbCeY8_nuyNwMEHQ-92" value="&lt;font style=&quot;font-size: 12px;&quot;&gt;&lt;i&gt;Training data distribution&lt;/i&gt;&lt;/font&gt;" style="text;html=1;strokeColor=none;fillColor=none;align=center;verticalAlign=middle;whiteSpace=wrap;rounded=0;fontColor=#333333;" parent="1" vertex="1">
          <mxGeometry x="112.93" y="1240" width="150" height="30" as="geometry" />
        </mxCell>
        <mxCell id="PQ9YIbCeY8_nuyNwMEHQ-93" value="&lt;i&gt;&lt;font style=&quot;font-size: 14px;&quot;&gt;Training&lt;/font&gt;&lt;/i&gt;" style="text;html=1;strokeColor=none;fillColor=none;align=center;verticalAlign=middle;whiteSpace=wrap;rounded=0;fontColor=#333333;" parent="1" vertex="1">
          <mxGeometry x="268.93" y="1080" width="61" height="30" as="geometry" />
        </mxCell>
        <mxCell id="PQ9YIbCeY8_nuyNwMEHQ-94" value="&lt;i&gt;&lt;font style=&quot;font-size: 14px;&quot;&gt;Sampling&lt;/font&gt;&lt;/i&gt;" style="text;html=1;strokeColor=none;fillColor=none;align=center;verticalAlign=middle;whiteSpace=wrap;rounded=0;fontColor=#333333;" parent="1" vertex="1">
          <mxGeometry x="499.93" y="1080" width="61" height="30" as="geometry" />
        </mxCell>
        <mxCell id="PQ9YIbCeY8_nuyNwMEHQ-95" value="&lt;font color=&quot;#ffffff&quot; style=&quot;font-size: 16px;&quot;&gt;Training data&lt;/font&gt;" style="rounded=1;whiteSpace=wrap;html=1;fillColor=#106d57;strokeColor=none;" parent="1" vertex="1">
          <mxGeometry x="112.93" y="1090" width="150" height="40" as="geometry" />
        </mxCell>
        <mxCell id="PQ9YIbCeY8_nuyNwMEHQ-96" value="" style="curved=1;endArrow=classic;html=1;rounded=0;entryX=0;entryY=1;entryDx=0;entryDy=0;dashed=1;" parent="1" target="PQ9YIbCeY8_nuyNwMEHQ-75" edge="1">
          <mxGeometry width="50" height="50" relative="1" as="geometry">
            <mxPoint x="262.93" y="1200" as="sourcePoint" />
            <mxPoint x="312.93" y="1150" as="targetPoint" />
            <Array as="points">
              <mxPoint x="312.93" y="1200" />
              <mxPoint x="262.93" y="1150" />
            </Array>
          </mxGeometry>
        </mxCell>
        <mxCell id="PQ9YIbCeY8_nuyNwMEHQ-97" value="" style="shape=table;startSize=0;container=1;collapsible=0;childLayout=tableLayout;fontSize=16;strokeColor=#333333;" parent="1" vertex="1">
          <mxGeometry x="572.93" y="1140" width="150" height="100" as="geometry" />
        </mxCell>
        <mxCell id="PQ9YIbCeY8_nuyNwMEHQ-98" value="" style="shape=tableRow;horizontal=0;startSize=0;swimlaneHead=0;swimlaneBody=0;strokeColor=inherit;top=0;left=0;bottom=0;right=0;collapsible=0;dropTarget=0;fillColor=none;points=[[0,0.5],[1,0.5]];portConstraint=eastwest;fontSize=16;" parent="PQ9YIbCeY8_nuyNwMEHQ-97" vertex="1">
          <mxGeometry width="150" height="33" as="geometry" />
        </mxCell>
        <mxCell id="PQ9YIbCeY8_nuyNwMEHQ-99" value="" style="shape=partialRectangle;html=1;whiteSpace=wrap;connectable=0;strokeColor=inherit;overflow=hidden;fillColor=none;top=0;left=0;bottom=0;right=0;pointerEvents=1;fontSize=16;" parent="PQ9YIbCeY8_nuyNwMEHQ-98" vertex="1">
          <mxGeometry width="49" height="33" as="geometry">
            <mxRectangle width="49" height="33" as="alternateBounds" />
          </mxGeometry>
        </mxCell>
        <mxCell id="PQ9YIbCeY8_nuyNwMEHQ-100" value="" style="shape=partialRectangle;html=1;whiteSpace=wrap;connectable=0;strokeColor=inherit;overflow=hidden;fillColor=none;top=0;left=0;bottom=0;right=0;pointerEvents=1;fontSize=16;" parent="PQ9YIbCeY8_nuyNwMEHQ-98" vertex="1">
          <mxGeometry x="49" width="52" height="33" as="geometry">
            <mxRectangle width="52" height="33" as="alternateBounds" />
          </mxGeometry>
        </mxCell>
        <mxCell id="PQ9YIbCeY8_nuyNwMEHQ-101" value="" style="shape=partialRectangle;html=1;whiteSpace=wrap;connectable=0;strokeColor=inherit;overflow=hidden;fillColor=none;top=0;left=0;bottom=0;right=0;pointerEvents=1;fontSize=16;" parent="PQ9YIbCeY8_nuyNwMEHQ-98" vertex="1">
          <mxGeometry x="101" width="49" height="33" as="geometry">
            <mxRectangle width="49" height="33" as="alternateBounds" />
          </mxGeometry>
        </mxCell>
        <mxCell id="PQ9YIbCeY8_nuyNwMEHQ-102" value="" style="shape=tableRow;horizontal=0;startSize=0;swimlaneHead=0;swimlaneBody=0;strokeColor=inherit;top=0;left=0;bottom=0;right=0;collapsible=0;dropTarget=0;fillColor=none;points=[[0,0.5],[1,0.5]];portConstraint=eastwest;fontSize=16;" parent="PQ9YIbCeY8_nuyNwMEHQ-97" vertex="1">
          <mxGeometry y="33" width="150" height="34" as="geometry" />
        </mxCell>
        <mxCell id="PQ9YIbCeY8_nuyNwMEHQ-103" value="" style="shape=partialRectangle;html=1;whiteSpace=wrap;connectable=0;strokeColor=inherit;overflow=hidden;fillColor=none;top=0;left=0;bottom=0;right=0;pointerEvents=1;fontSize=16;" parent="PQ9YIbCeY8_nuyNwMEHQ-102" vertex="1">
          <mxGeometry width="49" height="34" as="geometry">
            <mxRectangle width="49" height="34" as="alternateBounds" />
          </mxGeometry>
        </mxCell>
        <mxCell id="PQ9YIbCeY8_nuyNwMEHQ-104" value="" style="shape=partialRectangle;html=1;whiteSpace=wrap;connectable=0;strokeColor=inherit;overflow=hidden;fillColor=none;top=0;left=0;bottom=0;right=0;pointerEvents=1;fontSize=16;" parent="PQ9YIbCeY8_nuyNwMEHQ-102" vertex="1">
          <mxGeometry x="49" width="52" height="34" as="geometry">
            <mxRectangle width="52" height="34" as="alternateBounds" />
          </mxGeometry>
        </mxCell>
        <mxCell id="PQ9YIbCeY8_nuyNwMEHQ-105" value="" style="shape=partialRectangle;html=1;whiteSpace=wrap;connectable=0;strokeColor=inherit;overflow=hidden;fillColor=none;top=0;left=0;bottom=0;right=0;pointerEvents=1;fontSize=16;" parent="PQ9YIbCeY8_nuyNwMEHQ-102" vertex="1">
          <mxGeometry x="101" width="49" height="34" as="geometry">
            <mxRectangle width="49" height="34" as="alternateBounds" />
          </mxGeometry>
        </mxCell>
        <mxCell id="PQ9YIbCeY8_nuyNwMEHQ-106" value="" style="shape=tableRow;horizontal=0;startSize=0;swimlaneHead=0;swimlaneBody=0;strokeColor=inherit;top=0;left=0;bottom=0;right=0;collapsible=0;dropTarget=0;fillColor=none;points=[[0,0.5],[1,0.5]];portConstraint=eastwest;fontSize=16;" parent="PQ9YIbCeY8_nuyNwMEHQ-97" vertex="1">
          <mxGeometry y="67" width="150" height="33" as="geometry" />
        </mxCell>
        <mxCell id="PQ9YIbCeY8_nuyNwMEHQ-107" value="" style="shape=partialRectangle;html=1;whiteSpace=wrap;connectable=0;strokeColor=inherit;overflow=hidden;fillColor=none;top=0;left=0;bottom=0;right=0;pointerEvents=1;fontSize=16;" parent="PQ9YIbCeY8_nuyNwMEHQ-106" vertex="1">
          <mxGeometry width="49" height="33" as="geometry">
            <mxRectangle width="49" height="33" as="alternateBounds" />
          </mxGeometry>
        </mxCell>
        <mxCell id="PQ9YIbCeY8_nuyNwMEHQ-108" value="" style="shape=partialRectangle;html=1;whiteSpace=wrap;connectable=0;strokeColor=inherit;overflow=hidden;fillColor=none;top=0;left=0;bottom=0;right=0;pointerEvents=1;fontSize=16;" parent="PQ9YIbCeY8_nuyNwMEHQ-106" vertex="1">
          <mxGeometry x="49" width="52" height="33" as="geometry">
            <mxRectangle width="52" height="33" as="alternateBounds" />
          </mxGeometry>
        </mxCell>
        <mxCell id="PQ9YIbCeY8_nuyNwMEHQ-109" value="" style="shape=partialRectangle;html=1;whiteSpace=wrap;connectable=0;strokeColor=inherit;overflow=hidden;fillColor=none;top=0;left=0;bottom=0;right=0;pointerEvents=1;fontSize=16;" parent="PQ9YIbCeY8_nuyNwMEHQ-106" vertex="1">
          <mxGeometry x="101" width="49" height="33" as="geometry">
            <mxRectangle width="49" height="33" as="alternateBounds" />
          </mxGeometry>
        </mxCell>
        <mxCell id="PQ9YIbCeY8_nuyNwMEHQ-110" value="&lt;i style=&quot;border-color: var(--border-color);&quot;&gt;Goal: Training data distribution&lt;/i&gt;" style="text;html=1;strokeColor=none;fillColor=none;align=center;verticalAlign=middle;whiteSpace=wrap;rounded=0;fontColor=#333333;" parent="1" vertex="1">
          <mxGeometry x="557.93" y="1240" width="180" height="30" as="geometry" />
        </mxCell>
        <mxCell id="PQ9YIbCeY8_nuyNwMEHQ-111" value="&lt;font style=&quot;font-size: 12px;&quot;&gt;&lt;i&gt;Noise distribution&lt;/i&gt;&lt;/font&gt;" style="text;html=1;strokeColor=none;fillColor=none;align=center;verticalAlign=middle;whiteSpace=wrap;rounded=0;fontColor=#333333;" parent="1" vertex="1">
          <mxGeometry x="342.93" y="1240" width="150" height="30" as="geometry" />
        </mxCell>
        <mxCell id="PQ9YIbCeY8_nuyNwMEHQ-112" value="" style="group" parent="1" vertex="1" connectable="0">
          <mxGeometry x="140.93" y="1189" width="94" height="50" as="geometry" />
        </mxCell>
        <mxCell id="PQ9YIbCeY8_nuyNwMEHQ-113" value="" style="rounded=1;whiteSpace=wrap;html=1;strokeWidth=1;fillColor=#179c7d;strokeColor=#179c7d;" parent="PQ9YIbCeY8_nuyNwMEHQ-112" vertex="1">
          <mxGeometry y="20" width="6.2666666666666675" height="30" as="geometry" />
        </mxCell>
        <mxCell id="PQ9YIbCeY8_nuyNwMEHQ-114" value="" style="rounded=1;whiteSpace=wrap;html=1;strokeWidth=1;fillColor=#179c7d;strokeColor=#179c7d;" parent="PQ9YIbCeY8_nuyNwMEHQ-112" vertex="1">
          <mxGeometry x="12.533333333333335" width="6.2666666666666675" height="50" as="geometry" />
        </mxCell>
        <mxCell id="PQ9YIbCeY8_nuyNwMEHQ-115" value="" style="rounded=1;whiteSpace=wrap;html=1;strokeWidth=1;fillColor=#179c7d;strokeColor=#179c7d;" parent="PQ9YIbCeY8_nuyNwMEHQ-112" vertex="1">
          <mxGeometry x="25.06666666666667" y="10" width="6.2666666666666675" height="40" as="geometry" />
        </mxCell>
        <mxCell id="PQ9YIbCeY8_nuyNwMEHQ-116" value="" style="rounded=1;whiteSpace=wrap;html=1;strokeWidth=1;fillColor=#179c7d;strokeColor=#179c7d;" parent="PQ9YIbCeY8_nuyNwMEHQ-112" vertex="1">
          <mxGeometry x="37.6" y="30" width="6.2666666666666675" height="20" as="geometry" />
        </mxCell>
        <mxCell id="PQ9YIbCeY8_nuyNwMEHQ-117" value="" style="rounded=1;whiteSpace=wrap;html=1;strokeWidth=1;fillColor=#179c7d;strokeColor=#179c7d;" parent="PQ9YIbCeY8_nuyNwMEHQ-112" vertex="1">
          <mxGeometry x="50.13333333333334" y="20" width="6.2666666666666675" height="30" as="geometry" />
        </mxCell>
        <mxCell id="PQ9YIbCeY8_nuyNwMEHQ-118" value="" style="rounded=1;whiteSpace=wrap;html=1;strokeWidth=1;fillColor=#179c7d;strokeColor=#179c7d;" parent="PQ9YIbCeY8_nuyNwMEHQ-112" vertex="1">
          <mxGeometry x="62.66666666666667" width="6.2666666666666675" height="50" as="geometry" />
        </mxCell>
        <mxCell id="PQ9YIbCeY8_nuyNwMEHQ-119" value="" style="rounded=1;whiteSpace=wrap;html=1;strokeWidth=1;fillColor=#179c7d;strokeColor=#179c7d;" parent="PQ9YIbCeY8_nuyNwMEHQ-112" vertex="1">
          <mxGeometry x="75.2" y="10" width="6.2666666666666675" height="40" as="geometry" />
        </mxCell>
        <mxCell id="PQ9YIbCeY8_nuyNwMEHQ-120" value="" style="rounded=1;whiteSpace=wrap;html=1;strokeWidth=1;fillColor=#179c7d;strokeColor=#179c7d;" parent="PQ9YIbCeY8_nuyNwMEHQ-112" vertex="1">
          <mxGeometry x="87.73333333333333" y="30" width="6.2666666666666675" height="20" as="geometry" />
        </mxCell>
        <mxCell id="PQ9YIbCeY8_nuyNwMEHQ-121" value="" style="group" parent="1" vertex="1" connectable="0">
          <mxGeometry x="600.93" y="1189" width="94" height="50" as="geometry" />
        </mxCell>
        <mxCell id="PQ9YIbCeY8_nuyNwMEHQ-122" value="" style="rounded=1;whiteSpace=wrap;html=1;strokeWidth=1;fillColor=#179c7d;strokeColor=#179c7d;" parent="PQ9YIbCeY8_nuyNwMEHQ-121" vertex="1">
          <mxGeometry y="20" width="6.2666666666666675" height="30" as="geometry" />
        </mxCell>
        <mxCell id="PQ9YIbCeY8_nuyNwMEHQ-123" value="" style="rounded=1;whiteSpace=wrap;html=1;strokeWidth=1;fillColor=#179c7d;strokeColor=#179c7d;" parent="PQ9YIbCeY8_nuyNwMEHQ-121" vertex="1">
          <mxGeometry x="12.533333333333335" width="6.2666666666666675" height="50" as="geometry" />
        </mxCell>
        <mxCell id="PQ9YIbCeY8_nuyNwMEHQ-124" value="" style="rounded=1;whiteSpace=wrap;html=1;strokeWidth=1;fillColor=#179c7d;strokeColor=#179c7d;" parent="PQ9YIbCeY8_nuyNwMEHQ-121" vertex="1">
          <mxGeometry x="25.06666666666667" y="10" width="6.2666666666666675" height="40" as="geometry" />
        </mxCell>
        <mxCell id="PQ9YIbCeY8_nuyNwMEHQ-125" value="" style="rounded=1;whiteSpace=wrap;html=1;strokeWidth=1;fillColor=#179c7d;strokeColor=#179c7d;" parent="PQ9YIbCeY8_nuyNwMEHQ-121" vertex="1">
          <mxGeometry x="37.6" y="30" width="6.2666666666666675" height="20" as="geometry" />
        </mxCell>
        <mxCell id="PQ9YIbCeY8_nuyNwMEHQ-126" value="" style="rounded=1;whiteSpace=wrap;html=1;strokeWidth=1;fillColor=#179c7d;strokeColor=#179c7d;" parent="PQ9YIbCeY8_nuyNwMEHQ-121" vertex="1">
          <mxGeometry x="50.13333333333334" y="20" width="6.2666666666666675" height="30" as="geometry" />
        </mxCell>
        <mxCell id="PQ9YIbCeY8_nuyNwMEHQ-127" value="" style="rounded=1;whiteSpace=wrap;html=1;strokeWidth=1;fillColor=#179c7d;strokeColor=#179c7d;" parent="PQ9YIbCeY8_nuyNwMEHQ-121" vertex="1">
          <mxGeometry x="62.66666666666667" width="6.2666666666666675" height="50" as="geometry" />
        </mxCell>
        <mxCell id="PQ9YIbCeY8_nuyNwMEHQ-128" value="" style="rounded=1;whiteSpace=wrap;html=1;strokeWidth=1;fillColor=#179c7d;strokeColor=#179c7d;" parent="PQ9YIbCeY8_nuyNwMEHQ-121" vertex="1">
          <mxGeometry x="75.2" y="10" width="6.2666666666666675" height="40" as="geometry" />
        </mxCell>
        <mxCell id="PQ9YIbCeY8_nuyNwMEHQ-129" value="" style="rounded=1;whiteSpace=wrap;html=1;strokeWidth=1;fillColor=#179c7d;strokeColor=#179c7d;" parent="PQ9YIbCeY8_nuyNwMEHQ-121" vertex="1">
          <mxGeometry x="87.73333333333333" y="30" width="6.2666666666666675" height="20" as="geometry" />
        </mxCell>
        <mxCell id="PQ9YIbCeY8_nuyNwMEHQ-130" value="" style="rounded=1;whiteSpace=wrap;html=1;strokeWidth=1;fillColor=#179c7d;strokeColor=#179c7d;" parent="1" vertex="1">
          <mxGeometry x="345.995" y="1213.2857142857142" width="6.26681186283596" height="25.71428571428571" as="geometry" />
        </mxCell>
        <mxCell id="PQ9YIbCeY8_nuyNwMEHQ-131" value="" style="rounded=1;whiteSpace=wrap;html=1;strokeWidth=1;fillColor=#179c7d;strokeColor=#179c7d;" parent="1" vertex="1">
          <mxGeometry x="358.52862372567193" y="1196.142857142857" width="6.26681186283596" height="42.857142857142854" as="geometry" />
        </mxCell>
        <mxCell id="PQ9YIbCeY8_nuyNwMEHQ-132" value="" style="rounded=1;whiteSpace=wrap;html=1;strokeWidth=1;fillColor=#179c7d;strokeColor=#179c7d;" parent="1" vertex="1">
          <mxGeometry x="371.0622474513438" y="1204.7142857142858" width="6.26681186283596" height="34.285714285714285" as="geometry" />
        </mxCell>
        <mxCell id="PQ9YIbCeY8_nuyNwMEHQ-133" value="" style="rounded=1;whiteSpace=wrap;html=1;strokeWidth=1;fillColor=#179c7d;strokeColor=#179c7d;" parent="1" vertex="1">
          <mxGeometry x="383.59587117701574" y="1221.857142857143" width="6.26681186283596" height="17.142857142857142" as="geometry" />
        </mxCell>
        <mxCell id="PQ9YIbCeY8_nuyNwMEHQ-134" value="" style="rounded=1;whiteSpace=wrap;html=1;strokeWidth=1;fillColor=#179c7d;strokeColor=#179c7d;" parent="1" vertex="1">
          <mxGeometry x="445.9973169601483" y="1213.2857142857142" width="6.26681186283596" height="25.71428571428571" as="geometry" />
        </mxCell>
        <mxCell id="PQ9YIbCeY8_nuyNwMEHQ-135" value="" style="rounded=1;whiteSpace=wrap;html=1;strokeWidth=1;fillColor=#179c7d;strokeColor=#179c7d;" parent="1" vertex="1">
          <mxGeometry x="458.5309406858202" y="1196.142857142857" width="6.26681186283596" height="42.857142857142854" as="geometry" />
        </mxCell>
        <mxCell id="PQ9YIbCeY8_nuyNwMEHQ-136" value="" style="rounded=1;whiteSpace=wrap;html=1;strokeWidth=1;fillColor=#179c7d;strokeColor=#179c7d;" parent="1" vertex="1">
          <mxGeometry x="471.0645644114921" y="1204.7142857142858" width="6.26681186283596" height="34.285714285714285" as="geometry" />
        </mxCell>
        <mxCell id="PQ9YIbCeY8_nuyNwMEHQ-137" value="" style="rounded=1;whiteSpace=wrap;html=1;strokeWidth=1;fillColor=#179c7d;strokeColor=#179c7d;" parent="1" vertex="1">
          <mxGeometry x="483.5981881371641" y="1221.857142857143" width="6.26681186283596" height="17.142857142857142" as="geometry" />
        </mxCell>
        <mxCell id="PQ9YIbCeY8_nuyNwMEHQ-138" value="" style="group" parent="1" vertex="1" connectable="0">
          <mxGeometry x="396.1261614921223" y="1179" width="43.871016450417045" height="60" as="geometry" />
        </mxCell>
        <mxCell id="PQ9YIbCeY8_nuyNwMEHQ-139" value="" style="rounded=1;whiteSpace=wrap;html=1;strokeWidth=1;fillColor=#179c7d;strokeColor=#179c7d;" parent="PQ9YIbCeY8_nuyNwMEHQ-138" vertex="1">
          <mxGeometry y="24" width="6.2672880643452915" height="36" as="geometry" />
        </mxCell>
        <mxCell id="PQ9YIbCeY8_nuyNwMEHQ-140" value="" style="rounded=1;whiteSpace=wrap;html=1;strokeWidth=1;fillColor=#179c7d;strokeColor=#179c7d;" parent="PQ9YIbCeY8_nuyNwMEHQ-138" vertex="1">
          <mxGeometry x="12.537909792554588" width="6.270621728209304" height="60" as="geometry" />
        </mxCell>
        <mxCell id="PQ9YIbCeY8_nuyNwMEHQ-141" value="" style="rounded=1;whiteSpace=wrap;html=1;strokeWidth=1;fillColor=#179c7d;strokeColor=#179c7d;" parent="PQ9YIbCeY8_nuyNwMEHQ-138" vertex="1">
          <mxGeometry x="25.06915225738116" y="12" width="6.2672880643452915" height="48" as="geometry" />
        </mxCell>
        <mxCell id="PQ9YIbCeY8_nuyNwMEHQ-142" value="" style="rounded=1;whiteSpace=wrap;html=1;strokeWidth=1;fillColor=#179c7d;strokeColor=#179c7d;" parent="PQ9YIbCeY8_nuyNwMEHQ-138" vertex="1">
          <mxGeometry x="37.603728386071765" y="36" width="6.2672880643452915" height="24" as="geometry" />
        </mxCell>
        <mxCell id="kmxMY2eAw2KGMuyxF6EO-1" style="edgeStyle=orthogonalEdgeStyle;rounded=0;orthogonalLoop=1;jettySize=auto;html=1;exitX=1;exitY=0.5;exitDx=0;exitDy=0;entryX=0;entryY=0.5;entryDx=0;entryDy=0;" edge="1" parent="1" source="kmxMY2eAw2KGMuyxF6EO-24" target="kmxMY2eAw2KGMuyxF6EO-4">
          <mxGeometry relative="1" as="geometry" />
        </mxCell>
        <mxCell id="kmxMY2eAw2KGMuyxF6EO-2" style="edgeStyle=orthogonalEdgeStyle;rounded=0;orthogonalLoop=1;jettySize=auto;html=1;exitX=1;exitY=0.5;exitDx=0;exitDy=0;entryX=0;entryY=0.5;entryDx=0;entryDy=0;" edge="1" parent="1" source="kmxMY2eAw2KGMuyxF6EO-4" target="kmxMY2eAw2KGMuyxF6EO-7">
          <mxGeometry relative="1" as="geometry" />
        </mxCell>
        <mxCell id="kmxMY2eAw2KGMuyxF6EO-3" style="edgeStyle=orthogonalEdgeStyle;rounded=0;orthogonalLoop=1;jettySize=auto;html=1;exitX=1;exitY=0.5;exitDx=0;exitDy=0;" edge="1" parent="1" source="kmxMY2eAw2KGMuyxF6EO-4">
          <mxGeometry relative="1" as="geometry">
            <mxPoint x="473.2403448275863" y="1356.344827586207" as="targetPoint" />
          </mxGeometry>
        </mxCell>
        <mxCell id="kmxMY2eAw2KGMuyxF6EO-4" value="&lt;font color=&quot;#ffffff&quot; style=&quot;font-size: 16px;&quot;&gt;Generative model&lt;/font&gt;" style="rounded=1;whiteSpace=wrap;html=1;fillColor=#179c7d;strokeColor=none;" vertex="1" parent="1">
          <mxGeometry x="342.93" y="1336" width="150" height="40" as="geometry" />
        </mxCell>
        <mxCell id="kmxMY2eAw2KGMuyxF6EO-5" style="edgeStyle=orthogonalEdgeStyle;rounded=0;orthogonalLoop=1;jettySize=auto;html=1;exitX=0.5;exitY=0;exitDx=0;exitDy=0;entryX=0.5;entryY=1;entryDx=0;entryDy=0;" edge="1" parent="1" source="kmxMY2eAw2KGMuyxF6EO-6" target="kmxMY2eAw2KGMuyxF6EO-4">
          <mxGeometry relative="1" as="geometry" />
        </mxCell>
        <mxCell id="kmxMY2eAw2KGMuyxF6EO-6" value="&lt;span style=&quot;font-size: 16px;&quot;&gt;Random noise&lt;/span&gt;" style="rounded=1;whiteSpace=wrap;html=1;fillColor=#e7f5f2;fontColor=#333333;strokeColor=#333333;" vertex="1" parent="1">
          <mxGeometry x="342.93" y="1396" width="150" height="24" as="geometry" />
        </mxCell>
        <mxCell id="kmxMY2eAw2KGMuyxF6EO-76" style="edgeStyle=orthogonalEdgeStyle;rounded=0;orthogonalLoop=1;jettySize=auto;html=1;exitX=1;exitY=0.5;exitDx=0;exitDy=0;entryX=0;entryY=0.5;entryDx=0;entryDy=0;dashed=1;strokeColor=#000000;" edge="1" parent="1" source="kmxMY2eAw2KGMuyxF6EO-7" target="kmxMY2eAw2KGMuyxF6EO-72">
          <mxGeometry relative="1" as="geometry" />
        </mxCell>
        <mxCell id="kmxMY2eAw2KGMuyxF6EO-7" value="&lt;font color=&quot;#ffffff&quot; style=&quot;font-size: 16px;&quot;&gt;Synthetic sample&lt;/font&gt;" style="rounded=1;whiteSpace=wrap;html=1;fillColor=#5cb9a4;strokeColor=none;" vertex="1" parent="1">
          <mxGeometry x="572.93" y="1336" width="150" height="40" as="geometry" />
        </mxCell>
        <mxCell id="kmxMY2eAw2KGMuyxF6EO-8" value="" style="shape=table;startSize=0;container=1;collapsible=0;childLayout=tableLayout;fontSize=16;strokeColor=#333333;" vertex="1" parent="1">
          <mxGeometry x="112.93" y="1386" width="150" height="100" as="geometry" />
        </mxCell>
        <mxCell id="kmxMY2eAw2KGMuyxF6EO-9" value="" style="shape=tableRow;horizontal=0;startSize=0;swimlaneHead=0;swimlaneBody=0;strokeColor=inherit;top=0;left=0;bottom=0;right=0;collapsible=0;dropTarget=0;fillColor=none;points=[[0,0.5],[1,0.5]];portConstraint=eastwest;fontSize=16;" vertex="1" parent="kmxMY2eAw2KGMuyxF6EO-8">
          <mxGeometry width="150" height="33" as="geometry" />
        </mxCell>
        <mxCell id="kmxMY2eAw2KGMuyxF6EO-10" value="" style="shape=partialRectangle;html=1;whiteSpace=wrap;connectable=0;strokeColor=inherit;overflow=hidden;fillColor=none;top=0;left=0;bottom=0;right=0;pointerEvents=1;fontSize=16;" vertex="1" parent="kmxMY2eAw2KGMuyxF6EO-9">
          <mxGeometry width="49" height="33" as="geometry">
            <mxRectangle width="49" height="33" as="alternateBounds" />
          </mxGeometry>
        </mxCell>
        <mxCell id="kmxMY2eAw2KGMuyxF6EO-11" value="" style="shape=partialRectangle;html=1;whiteSpace=wrap;connectable=0;strokeColor=inherit;overflow=hidden;fillColor=none;top=0;left=0;bottom=0;right=0;pointerEvents=1;fontSize=16;" vertex="1" parent="kmxMY2eAw2KGMuyxF6EO-9">
          <mxGeometry x="49" width="52" height="33" as="geometry">
            <mxRectangle width="52" height="33" as="alternateBounds" />
          </mxGeometry>
        </mxCell>
        <mxCell id="kmxMY2eAw2KGMuyxF6EO-12" value="" style="shape=partialRectangle;html=1;whiteSpace=wrap;connectable=0;strokeColor=inherit;overflow=hidden;fillColor=none;top=0;left=0;bottom=0;right=0;pointerEvents=1;fontSize=16;" vertex="1" parent="kmxMY2eAw2KGMuyxF6EO-9">
          <mxGeometry x="101" width="49" height="33" as="geometry">
            <mxRectangle width="49" height="33" as="alternateBounds" />
          </mxGeometry>
        </mxCell>
        <mxCell id="kmxMY2eAw2KGMuyxF6EO-13" value="" style="shape=tableRow;horizontal=0;startSize=0;swimlaneHead=0;swimlaneBody=0;strokeColor=inherit;top=0;left=0;bottom=0;right=0;collapsible=0;dropTarget=0;fillColor=none;points=[[0,0.5],[1,0.5]];portConstraint=eastwest;fontSize=16;" vertex="1" parent="kmxMY2eAw2KGMuyxF6EO-8">
          <mxGeometry y="33" width="150" height="34" as="geometry" />
        </mxCell>
        <mxCell id="kmxMY2eAw2KGMuyxF6EO-14" value="" style="shape=partialRectangle;html=1;whiteSpace=wrap;connectable=0;strokeColor=inherit;overflow=hidden;fillColor=none;top=0;left=0;bottom=0;right=0;pointerEvents=1;fontSize=16;" vertex="1" parent="kmxMY2eAw2KGMuyxF6EO-13">
          <mxGeometry width="49" height="34" as="geometry">
            <mxRectangle width="49" height="34" as="alternateBounds" />
          </mxGeometry>
        </mxCell>
        <mxCell id="kmxMY2eAw2KGMuyxF6EO-15" value="" style="shape=partialRectangle;html=1;whiteSpace=wrap;connectable=0;strokeColor=inherit;overflow=hidden;fillColor=none;top=0;left=0;bottom=0;right=0;pointerEvents=1;fontSize=16;" vertex="1" parent="kmxMY2eAw2KGMuyxF6EO-13">
          <mxGeometry x="49" width="52" height="34" as="geometry">
            <mxRectangle width="52" height="34" as="alternateBounds" />
          </mxGeometry>
        </mxCell>
        <mxCell id="kmxMY2eAw2KGMuyxF6EO-16" value="" style="shape=partialRectangle;html=1;whiteSpace=wrap;connectable=0;strokeColor=inherit;overflow=hidden;fillColor=none;top=0;left=0;bottom=0;right=0;pointerEvents=1;fontSize=16;" vertex="1" parent="kmxMY2eAw2KGMuyxF6EO-13">
          <mxGeometry x="101" width="49" height="34" as="geometry">
            <mxRectangle width="49" height="34" as="alternateBounds" />
          </mxGeometry>
        </mxCell>
        <mxCell id="kmxMY2eAw2KGMuyxF6EO-17" value="" style="shape=tableRow;horizontal=0;startSize=0;swimlaneHead=0;swimlaneBody=0;strokeColor=inherit;top=0;left=0;bottom=0;right=0;collapsible=0;dropTarget=0;fillColor=none;points=[[0,0.5],[1,0.5]];portConstraint=eastwest;fontSize=16;" vertex="1" parent="kmxMY2eAw2KGMuyxF6EO-8">
          <mxGeometry y="67" width="150" height="33" as="geometry" />
        </mxCell>
        <mxCell id="kmxMY2eAw2KGMuyxF6EO-18" value="" style="shape=partialRectangle;html=1;whiteSpace=wrap;connectable=0;strokeColor=inherit;overflow=hidden;fillColor=none;top=0;left=0;bottom=0;right=0;pointerEvents=1;fontSize=16;" vertex="1" parent="kmxMY2eAw2KGMuyxF6EO-17">
          <mxGeometry width="49" height="33" as="geometry">
            <mxRectangle width="49" height="33" as="alternateBounds" />
          </mxGeometry>
        </mxCell>
        <mxCell id="kmxMY2eAw2KGMuyxF6EO-19" value="" style="shape=partialRectangle;html=1;whiteSpace=wrap;connectable=0;strokeColor=inherit;overflow=hidden;fillColor=none;top=0;left=0;bottom=0;right=0;pointerEvents=1;fontSize=16;" vertex="1" parent="kmxMY2eAw2KGMuyxF6EO-17">
          <mxGeometry x="49" width="52" height="33" as="geometry">
            <mxRectangle width="52" height="33" as="alternateBounds" />
          </mxGeometry>
        </mxCell>
        <mxCell id="kmxMY2eAw2KGMuyxF6EO-20" value="" style="shape=partialRectangle;html=1;whiteSpace=wrap;connectable=0;strokeColor=inherit;overflow=hidden;fillColor=none;top=0;left=0;bottom=0;right=0;pointerEvents=1;fontSize=16;" vertex="1" parent="kmxMY2eAw2KGMuyxF6EO-17">
          <mxGeometry x="101" width="49" height="33" as="geometry">
            <mxRectangle width="49" height="33" as="alternateBounds" />
          </mxGeometry>
        </mxCell>
        <mxCell id="kmxMY2eAw2KGMuyxF6EO-21" value="&lt;font style=&quot;font-size: 12px;&quot;&gt;&lt;i&gt;Training data distribution&lt;/i&gt;&lt;/font&gt;" style="text;html=1;strokeColor=none;fillColor=none;align=center;verticalAlign=middle;whiteSpace=wrap;rounded=0;fontColor=#333333;" vertex="1" parent="1">
          <mxGeometry x="112.93" y="1486" width="150" height="30" as="geometry" />
        </mxCell>
        <mxCell id="kmxMY2eAw2KGMuyxF6EO-22" value="&lt;i&gt;&lt;font style=&quot;font-size: 14px;&quot;&gt;Training&lt;/font&gt;&lt;/i&gt;" style="text;html=1;strokeColor=none;fillColor=none;align=center;verticalAlign=middle;whiteSpace=wrap;rounded=0;fontColor=#333333;" vertex="1" parent="1">
          <mxGeometry x="268.93" y="1326" width="61" height="30" as="geometry" />
        </mxCell>
        <mxCell id="kmxMY2eAw2KGMuyxF6EO-23" value="&lt;i&gt;&lt;font style=&quot;font-size: 14px;&quot;&gt;Sampling&lt;/font&gt;&lt;/i&gt;" style="text;html=1;strokeColor=none;fillColor=none;align=center;verticalAlign=middle;whiteSpace=wrap;rounded=0;fontColor=#333333;" vertex="1" parent="1">
          <mxGeometry x="499.93" y="1326" width="61" height="30" as="geometry" />
        </mxCell>
        <mxCell id="kmxMY2eAw2KGMuyxF6EO-24" value="&lt;font color=&quot;#ffffff&quot; style=&quot;font-size: 16px;&quot;&gt;Training data&lt;/font&gt;" style="rounded=1;whiteSpace=wrap;html=1;fillColor=#106d57;strokeColor=none;" vertex="1" parent="1">
          <mxGeometry x="112.93" y="1336" width="150" height="40" as="geometry" />
        </mxCell>
        <mxCell id="kmxMY2eAw2KGMuyxF6EO-25" value="" style="curved=1;endArrow=classic;html=1;rounded=0;entryX=0;entryY=1;entryDx=0;entryDy=0;dashed=1;" edge="1" parent="1" target="kmxMY2eAw2KGMuyxF6EO-4">
          <mxGeometry width="50" height="50" relative="1" as="geometry">
            <mxPoint x="262.93" y="1446" as="sourcePoint" />
            <mxPoint x="312.93" y="1396" as="targetPoint" />
            <Array as="points">
              <mxPoint x="312.93" y="1446" />
              <mxPoint x="262.93" y="1396" />
            </Array>
          </mxGeometry>
        </mxCell>
        <mxCell id="kmxMY2eAw2KGMuyxF6EO-26" value="" style="shape=table;startSize=0;container=1;collapsible=0;childLayout=tableLayout;fontSize=16;strokeColor=#333333;" vertex="1" parent="1">
          <mxGeometry x="572.93" y="1386" width="150" height="100" as="geometry" />
        </mxCell>
        <mxCell id="kmxMY2eAw2KGMuyxF6EO-27" value="" style="shape=tableRow;horizontal=0;startSize=0;swimlaneHead=0;swimlaneBody=0;strokeColor=inherit;top=0;left=0;bottom=0;right=0;collapsible=0;dropTarget=0;fillColor=none;points=[[0,0.5],[1,0.5]];portConstraint=eastwest;fontSize=16;" vertex="1" parent="kmxMY2eAw2KGMuyxF6EO-26">
          <mxGeometry width="150" height="33" as="geometry" />
        </mxCell>
        <mxCell id="kmxMY2eAw2KGMuyxF6EO-28" value="" style="shape=partialRectangle;html=1;whiteSpace=wrap;connectable=0;strokeColor=inherit;overflow=hidden;fillColor=none;top=0;left=0;bottom=0;right=0;pointerEvents=1;fontSize=16;" vertex="1" parent="kmxMY2eAw2KGMuyxF6EO-27">
          <mxGeometry width="49" height="33" as="geometry">
            <mxRectangle width="49" height="33" as="alternateBounds" />
          </mxGeometry>
        </mxCell>
        <mxCell id="kmxMY2eAw2KGMuyxF6EO-29" value="" style="shape=partialRectangle;html=1;whiteSpace=wrap;connectable=0;strokeColor=inherit;overflow=hidden;fillColor=none;top=0;left=0;bottom=0;right=0;pointerEvents=1;fontSize=16;" vertex="1" parent="kmxMY2eAw2KGMuyxF6EO-27">
          <mxGeometry x="49" width="52" height="33" as="geometry">
            <mxRectangle width="52" height="33" as="alternateBounds" />
          </mxGeometry>
        </mxCell>
        <mxCell id="kmxMY2eAw2KGMuyxF6EO-30" value="" style="shape=partialRectangle;html=1;whiteSpace=wrap;connectable=0;strokeColor=inherit;overflow=hidden;fillColor=none;top=0;left=0;bottom=0;right=0;pointerEvents=1;fontSize=16;" vertex="1" parent="kmxMY2eAw2KGMuyxF6EO-27">
          <mxGeometry x="101" width="49" height="33" as="geometry">
            <mxRectangle width="49" height="33" as="alternateBounds" />
          </mxGeometry>
        </mxCell>
        <mxCell id="kmxMY2eAw2KGMuyxF6EO-31" value="" style="shape=tableRow;horizontal=0;startSize=0;swimlaneHead=0;swimlaneBody=0;strokeColor=inherit;top=0;left=0;bottom=0;right=0;collapsible=0;dropTarget=0;fillColor=none;points=[[0,0.5],[1,0.5]];portConstraint=eastwest;fontSize=16;" vertex="1" parent="kmxMY2eAw2KGMuyxF6EO-26">
          <mxGeometry y="33" width="150" height="34" as="geometry" />
        </mxCell>
        <mxCell id="kmxMY2eAw2KGMuyxF6EO-32" value="" style="shape=partialRectangle;html=1;whiteSpace=wrap;connectable=0;strokeColor=inherit;overflow=hidden;fillColor=none;top=0;left=0;bottom=0;right=0;pointerEvents=1;fontSize=16;" vertex="1" parent="kmxMY2eAw2KGMuyxF6EO-31">
          <mxGeometry width="49" height="34" as="geometry">
            <mxRectangle width="49" height="34" as="alternateBounds" />
          </mxGeometry>
        </mxCell>
        <mxCell id="kmxMY2eAw2KGMuyxF6EO-33" value="" style="shape=partialRectangle;html=1;whiteSpace=wrap;connectable=0;strokeColor=inherit;overflow=hidden;fillColor=none;top=0;left=0;bottom=0;right=0;pointerEvents=1;fontSize=16;" vertex="1" parent="kmxMY2eAw2KGMuyxF6EO-31">
          <mxGeometry x="49" width="52" height="34" as="geometry">
            <mxRectangle width="52" height="34" as="alternateBounds" />
          </mxGeometry>
        </mxCell>
        <mxCell id="kmxMY2eAw2KGMuyxF6EO-34" value="" style="shape=partialRectangle;html=1;whiteSpace=wrap;connectable=0;strokeColor=inherit;overflow=hidden;fillColor=none;top=0;left=0;bottom=0;right=0;pointerEvents=1;fontSize=16;" vertex="1" parent="kmxMY2eAw2KGMuyxF6EO-31">
          <mxGeometry x="101" width="49" height="34" as="geometry">
            <mxRectangle width="49" height="34" as="alternateBounds" />
          </mxGeometry>
        </mxCell>
        <mxCell id="kmxMY2eAw2KGMuyxF6EO-35" value="" style="shape=tableRow;horizontal=0;startSize=0;swimlaneHead=0;swimlaneBody=0;strokeColor=inherit;top=0;left=0;bottom=0;right=0;collapsible=0;dropTarget=0;fillColor=none;points=[[0,0.5],[1,0.5]];portConstraint=eastwest;fontSize=16;" vertex="1" parent="kmxMY2eAw2KGMuyxF6EO-26">
          <mxGeometry y="67" width="150" height="33" as="geometry" />
        </mxCell>
        <mxCell id="kmxMY2eAw2KGMuyxF6EO-36" value="" style="shape=partialRectangle;html=1;whiteSpace=wrap;connectable=0;strokeColor=inherit;overflow=hidden;fillColor=none;top=0;left=0;bottom=0;right=0;pointerEvents=1;fontSize=16;" vertex="1" parent="kmxMY2eAw2KGMuyxF6EO-35">
          <mxGeometry width="49" height="33" as="geometry">
            <mxRectangle width="49" height="33" as="alternateBounds" />
          </mxGeometry>
        </mxCell>
        <mxCell id="kmxMY2eAw2KGMuyxF6EO-37" value="" style="shape=partialRectangle;html=1;whiteSpace=wrap;connectable=0;strokeColor=inherit;overflow=hidden;fillColor=none;top=0;left=0;bottom=0;right=0;pointerEvents=1;fontSize=16;" vertex="1" parent="kmxMY2eAw2KGMuyxF6EO-35">
          <mxGeometry x="49" width="52" height="33" as="geometry">
            <mxRectangle width="52" height="33" as="alternateBounds" />
          </mxGeometry>
        </mxCell>
        <mxCell id="kmxMY2eAw2KGMuyxF6EO-38" value="" style="shape=partialRectangle;html=1;whiteSpace=wrap;connectable=0;strokeColor=inherit;overflow=hidden;fillColor=none;top=0;left=0;bottom=0;right=0;pointerEvents=1;fontSize=16;" vertex="1" parent="kmxMY2eAw2KGMuyxF6EO-35">
          <mxGeometry x="101" width="49" height="33" as="geometry">
            <mxRectangle width="49" height="33" as="alternateBounds" />
          </mxGeometry>
        </mxCell>
        <mxCell id="kmxMY2eAw2KGMuyxF6EO-39" value="&lt;i style=&quot;border-color: var(--border-color);&quot;&gt;Goal: Training data distribution&lt;/i&gt;" style="text;html=1;strokeColor=none;fillColor=none;align=center;verticalAlign=middle;whiteSpace=wrap;rounded=0;fontColor=#333333;" vertex="1" parent="1">
          <mxGeometry x="557.93" y="1486" width="180" height="30" as="geometry" />
        </mxCell>
        <mxCell id="kmxMY2eAw2KGMuyxF6EO-40" value="&lt;font style=&quot;font-size: 12px;&quot;&gt;&lt;i&gt;Noise distribution&lt;/i&gt;&lt;/font&gt;" style="text;html=1;strokeColor=none;fillColor=none;align=center;verticalAlign=middle;whiteSpace=wrap;rounded=0;fontColor=#333333;" vertex="1" parent="1">
          <mxGeometry x="342.93" y="1486" width="150" height="30" as="geometry" />
        </mxCell>
        <mxCell id="kmxMY2eAw2KGMuyxF6EO-41" value="" style="group" vertex="1" connectable="0" parent="1">
          <mxGeometry x="140.93" y="1435" width="94" height="50" as="geometry" />
        </mxCell>
        <mxCell id="kmxMY2eAw2KGMuyxF6EO-42" value="" style="rounded=1;whiteSpace=wrap;html=1;strokeWidth=1;fillColor=#179c7d;strokeColor=#179c7d;" vertex="1" parent="kmxMY2eAw2KGMuyxF6EO-41">
          <mxGeometry y="20" width="6.2666666666666675" height="30" as="geometry" />
        </mxCell>
        <mxCell id="kmxMY2eAw2KGMuyxF6EO-43" value="" style="rounded=1;whiteSpace=wrap;html=1;strokeWidth=1;fillColor=#179c7d;strokeColor=#179c7d;" vertex="1" parent="kmxMY2eAw2KGMuyxF6EO-41">
          <mxGeometry x="12.533333333333335" width="6.2666666666666675" height="50" as="geometry" />
        </mxCell>
        <mxCell id="kmxMY2eAw2KGMuyxF6EO-44" value="" style="rounded=1;whiteSpace=wrap;html=1;strokeWidth=1;fillColor=#179c7d;strokeColor=#179c7d;" vertex="1" parent="kmxMY2eAw2KGMuyxF6EO-41">
          <mxGeometry x="25.06666666666667" y="10" width="6.2666666666666675" height="40" as="geometry" />
        </mxCell>
        <mxCell id="kmxMY2eAw2KGMuyxF6EO-45" value="" style="rounded=1;whiteSpace=wrap;html=1;strokeWidth=1;fillColor=#179c7d;strokeColor=#179c7d;" vertex="1" parent="kmxMY2eAw2KGMuyxF6EO-41">
          <mxGeometry x="37.6" y="30" width="6.2666666666666675" height="20" as="geometry" />
        </mxCell>
        <mxCell id="kmxMY2eAw2KGMuyxF6EO-46" value="" style="rounded=1;whiteSpace=wrap;html=1;strokeWidth=1;fillColor=#179c7d;strokeColor=#179c7d;" vertex="1" parent="kmxMY2eAw2KGMuyxF6EO-41">
          <mxGeometry x="50.13333333333334" y="20" width="6.2666666666666675" height="30" as="geometry" />
        </mxCell>
        <mxCell id="kmxMY2eAw2KGMuyxF6EO-47" value="" style="rounded=1;whiteSpace=wrap;html=1;strokeWidth=1;fillColor=#179c7d;strokeColor=#179c7d;" vertex="1" parent="kmxMY2eAw2KGMuyxF6EO-41">
          <mxGeometry x="62.66666666666667" width="6.2666666666666675" height="50" as="geometry" />
        </mxCell>
        <mxCell id="kmxMY2eAw2KGMuyxF6EO-48" value="" style="rounded=1;whiteSpace=wrap;html=1;strokeWidth=1;fillColor=#179c7d;strokeColor=#179c7d;" vertex="1" parent="kmxMY2eAw2KGMuyxF6EO-41">
          <mxGeometry x="75.2" y="10" width="6.2666666666666675" height="40" as="geometry" />
        </mxCell>
        <mxCell id="kmxMY2eAw2KGMuyxF6EO-49" value="" style="rounded=1;whiteSpace=wrap;html=1;strokeWidth=1;fillColor=#179c7d;strokeColor=#179c7d;" vertex="1" parent="kmxMY2eAw2KGMuyxF6EO-41">
          <mxGeometry x="87.73333333333333" y="30" width="6.2666666666666675" height="20" as="geometry" />
        </mxCell>
        <mxCell id="kmxMY2eAw2KGMuyxF6EO-50" value="" style="group" vertex="1" connectable="0" parent="1">
          <mxGeometry x="600.93" y="1435" width="94" height="50" as="geometry" />
        </mxCell>
        <mxCell id="kmxMY2eAw2KGMuyxF6EO-51" value="" style="rounded=1;whiteSpace=wrap;html=1;strokeWidth=1;fillColor=#179c7d;strokeColor=#179c7d;" vertex="1" parent="kmxMY2eAw2KGMuyxF6EO-50">
          <mxGeometry y="20" width="6.2666666666666675" height="30" as="geometry" />
        </mxCell>
        <mxCell id="kmxMY2eAw2KGMuyxF6EO-52" value="" style="rounded=1;whiteSpace=wrap;html=1;strokeWidth=1;fillColor=#179c7d;strokeColor=#179c7d;" vertex="1" parent="kmxMY2eAw2KGMuyxF6EO-50">
          <mxGeometry x="12.533333333333335" width="6.2666666666666675" height="50" as="geometry" />
        </mxCell>
        <mxCell id="kmxMY2eAw2KGMuyxF6EO-53" value="" style="rounded=1;whiteSpace=wrap;html=1;strokeWidth=1;fillColor=#179c7d;strokeColor=#179c7d;" vertex="1" parent="kmxMY2eAw2KGMuyxF6EO-50">
          <mxGeometry x="25.06666666666667" y="10" width="6.2666666666666675" height="40" as="geometry" />
        </mxCell>
        <mxCell id="kmxMY2eAw2KGMuyxF6EO-54" value="" style="rounded=1;whiteSpace=wrap;html=1;strokeWidth=1;fillColor=#179c7d;strokeColor=#179c7d;" vertex="1" parent="kmxMY2eAw2KGMuyxF6EO-50">
          <mxGeometry x="37.6" y="30" width="6.2666666666666675" height="20" as="geometry" />
        </mxCell>
        <mxCell id="kmxMY2eAw2KGMuyxF6EO-55" value="" style="rounded=1;whiteSpace=wrap;html=1;strokeWidth=1;fillColor=#179c7d;strokeColor=#179c7d;" vertex="1" parent="kmxMY2eAw2KGMuyxF6EO-50">
          <mxGeometry x="50.13333333333334" y="20" width="6.2666666666666675" height="30" as="geometry" />
        </mxCell>
        <mxCell id="kmxMY2eAw2KGMuyxF6EO-56" value="" style="rounded=1;whiteSpace=wrap;html=1;strokeWidth=1;fillColor=#179c7d;strokeColor=#179c7d;" vertex="1" parent="kmxMY2eAw2KGMuyxF6EO-50">
          <mxGeometry x="62.66666666666667" width="6.2666666666666675" height="50" as="geometry" />
        </mxCell>
        <mxCell id="kmxMY2eAw2KGMuyxF6EO-57" value="" style="rounded=1;whiteSpace=wrap;html=1;strokeWidth=1;fillColor=#179c7d;strokeColor=#179c7d;" vertex="1" parent="kmxMY2eAw2KGMuyxF6EO-50">
          <mxGeometry x="75.2" y="10" width="6.2666666666666675" height="40" as="geometry" />
        </mxCell>
        <mxCell id="kmxMY2eAw2KGMuyxF6EO-58" value="" style="rounded=1;whiteSpace=wrap;html=1;strokeWidth=1;fillColor=#179c7d;strokeColor=#179c7d;" vertex="1" parent="kmxMY2eAw2KGMuyxF6EO-50">
          <mxGeometry x="87.73333333333333" y="30" width="6.2666666666666675" height="20" as="geometry" />
        </mxCell>
        <mxCell id="kmxMY2eAw2KGMuyxF6EO-59" value="" style="rounded=1;whiteSpace=wrap;html=1;strokeWidth=1;fillColor=#179c7d;strokeColor=#179c7d;" vertex="1" parent="1">
          <mxGeometry x="345.995" y="1459.2857142857142" width="6.26681186283596" height="25.71428571428571" as="geometry" />
        </mxCell>
        <mxCell id="kmxMY2eAw2KGMuyxF6EO-60" value="" style="rounded=1;whiteSpace=wrap;html=1;strokeWidth=1;fillColor=#179c7d;strokeColor=#179c7d;" vertex="1" parent="1">
          <mxGeometry x="358.52862372567193" y="1442.142857142857" width="6.26681186283596" height="42.857142857142854" as="geometry" />
        </mxCell>
        <mxCell id="kmxMY2eAw2KGMuyxF6EO-61" value="" style="rounded=1;whiteSpace=wrap;html=1;strokeWidth=1;fillColor=#179c7d;strokeColor=#179c7d;" vertex="1" parent="1">
          <mxGeometry x="371.0622474513438" y="1450.7142857142858" width="6.26681186283596" height="34.285714285714285" as="geometry" />
        </mxCell>
        <mxCell id="kmxMY2eAw2KGMuyxF6EO-62" value="" style="rounded=1;whiteSpace=wrap;html=1;strokeWidth=1;fillColor=#179c7d;strokeColor=#179c7d;" vertex="1" parent="1">
          <mxGeometry x="383.59587117701574" y="1467.857142857143" width="6.26681186283596" height="17.142857142857142" as="geometry" />
        </mxCell>
        <mxCell id="kmxMY2eAw2KGMuyxF6EO-63" value="" style="rounded=1;whiteSpace=wrap;html=1;strokeWidth=1;fillColor=#179c7d;strokeColor=#179c7d;" vertex="1" parent="1">
          <mxGeometry x="445.9973169601483" y="1459.2857142857142" width="6.26681186283596" height="25.71428571428571" as="geometry" />
        </mxCell>
        <mxCell id="kmxMY2eAw2KGMuyxF6EO-64" value="" style="rounded=1;whiteSpace=wrap;html=1;strokeWidth=1;fillColor=#179c7d;strokeColor=#179c7d;" vertex="1" parent="1">
          <mxGeometry x="458.5309406858202" y="1442.142857142857" width="6.26681186283596" height="42.857142857142854" as="geometry" />
        </mxCell>
        <mxCell id="kmxMY2eAw2KGMuyxF6EO-65" value="" style="rounded=1;whiteSpace=wrap;html=1;strokeWidth=1;fillColor=#179c7d;strokeColor=#179c7d;" vertex="1" parent="1">
          <mxGeometry x="471.0645644114921" y="1450.7142857142858" width="6.26681186283596" height="34.285714285714285" as="geometry" />
        </mxCell>
        <mxCell id="kmxMY2eAw2KGMuyxF6EO-66" value="" style="rounded=1;whiteSpace=wrap;html=1;strokeWidth=1;fillColor=#179c7d;strokeColor=#179c7d;" vertex="1" parent="1">
          <mxGeometry x="483.5981881371641" y="1467.857142857143" width="6.26681186283596" height="17.142857142857142" as="geometry" />
        </mxCell>
        <mxCell id="kmxMY2eAw2KGMuyxF6EO-67" value="" style="group" vertex="1" connectable="0" parent="1">
          <mxGeometry x="396.1261614921223" y="1425" width="43.871016450417045" height="60" as="geometry" />
        </mxCell>
        <mxCell id="kmxMY2eAw2KGMuyxF6EO-68" value="" style="rounded=1;whiteSpace=wrap;html=1;strokeWidth=1;fillColor=#179c7d;strokeColor=#179c7d;" vertex="1" parent="kmxMY2eAw2KGMuyxF6EO-67">
          <mxGeometry y="24" width="6.2672880643452915" height="36" as="geometry" />
        </mxCell>
        <mxCell id="kmxMY2eAw2KGMuyxF6EO-69" value="" style="rounded=1;whiteSpace=wrap;html=1;strokeWidth=1;fillColor=#179c7d;strokeColor=#179c7d;" vertex="1" parent="kmxMY2eAw2KGMuyxF6EO-67">
          <mxGeometry x="12.537909792554588" width="6.270621728209304" height="60" as="geometry" />
        </mxCell>
        <mxCell id="kmxMY2eAw2KGMuyxF6EO-70" value="" style="rounded=1;whiteSpace=wrap;html=1;strokeWidth=1;fillColor=#179c7d;strokeColor=#179c7d;" vertex="1" parent="kmxMY2eAw2KGMuyxF6EO-67">
          <mxGeometry x="25.06915225738116" y="12" width="6.2672880643452915" height="48" as="geometry" />
        </mxCell>
        <mxCell id="kmxMY2eAw2KGMuyxF6EO-71" value="" style="rounded=1;whiteSpace=wrap;html=1;strokeWidth=1;fillColor=#179c7d;strokeColor=#179c7d;" vertex="1" parent="kmxMY2eAw2KGMuyxF6EO-67">
          <mxGeometry x="37.603728386071765" y="36" width="6.2672880643452915" height="24" as="geometry" />
        </mxCell>
        <mxCell id="kmxMY2eAw2KGMuyxF6EO-72" value="&lt;font color=&quot;#333333&quot; style=&quot;font-size: 16px;&quot;&gt;Advantages&lt;/font&gt;" style="rounded=1;whiteSpace=wrap;html=1;fillColor=#e7f5f2;strokeColor=none;" vertex="1" parent="1">
          <mxGeometry x="802.93" y="1336" width="150" height="40" as="geometry" />
        </mxCell>
        <mxCell id="kmxMY2eAw2KGMuyxF6EO-77" value="&lt;font style=&quot;font-size: 12px;&quot;&gt;Real data distribution mapping&lt;/font&gt;" style="rounded=1;whiteSpace=wrap;html=1;fillColor=#FFFFFF;fontColor=#333333;strokeColor=#333333;" vertex="1" parent="1">
          <mxGeometry x="802.93" y="1386" width="147.07" height="34" as="geometry" />
        </mxCell>
        <mxCell id="kmxMY2eAw2KGMuyxF6EO-78" value="&lt;font style=&quot;font-size: 12px;&quot;&gt;Underlying patterns representation&lt;/font&gt;" style="rounded=1;whiteSpace=wrap;html=1;fillColor=#FFFFFF;fontColor=#333333;strokeColor=#333333;" vertex="1" parent="1">
          <mxGeometry x="802.93" y="1429" width="147.07" height="34" as="geometry" />
        </mxCell>
        <mxCell id="kmxMY2eAw2KGMuyxF6EO-79" value="&lt;font style=&quot;font-size: 12px;&quot;&gt;Less prone to non-representative data&lt;/font&gt;" style="rounded=1;whiteSpace=wrap;html=1;fillColor=#FFFFFF;fontColor=#333333;strokeColor=#333333;" vertex="1" parent="1">
          <mxGeometry x="802.93" y="1471.86" width="147.07" height="34" as="geometry" />
        </mxCell>
      </root>
    </mxGraphModel>
  </diagram>
</mxfile>
